<?xml version="1.0" encoding="UTF-8" standalone="no"?>
<svg
   xmlns:dc="http://purl.org/dc/elements/1.1/"
   xmlns:cc="http://creativecommons.org/ns#"
   xmlns:rdf="http://www.w3.org/1999/02/22-rdf-syntax-ns#"
   xmlns:svg="http://www.w3.org/2000/svg"
   xmlns="http://www.w3.org/2000/svg"
   width="210mm"
   height="297mm"
   viewBox="0 0 210 297"
   version="1.1"
   id="svg8">
  <defs
     id="defs2">
    <marker
       id="DistanceX"
       orient="auto"
       refX="0.0"
       refY="0.0"
       style="overflow:visible">
      <path
         d="M 3,-3 L -3,3 M 0,-5 L  0,5"
         style="stroke:#000000; stroke-width:0.5"
         id="path10" />
    </marker>
    <pattern
       id="Hatch"
       patternUnits="userSpaceOnUse"
       width="8"
       height="8"
       x="0"
       y="0">
      <path
         d="M8 4 l-4,4"
         stroke="#000000"
         stroke-width="0.25"
         linecap="square"
         id="path13" />
      <path
         d="M6 2 l-4,4"
         stroke="#000000"
         stroke-width="0.25"
         linecap="square"
         id="path15" />
      <path
         d="M4 0 l-4,4"
         stroke="#000000"
         stroke-width="0.25"
         linecap="square"
         id="path17" />
    </pattern>
    <symbol
       id="*MODEL_SPACE" />
    <symbol
       id="*PAPER_SPACE" />
    <marker
       id="DistanceX-8"
       orient="auto"
       refX="0.0"
       refY="0.0"
       style="overflow:visible">
      <path
         d="M 3,-3 L -3,3 M 0,-5 L  0,5"
         style="stroke:#000000; stroke-width:0.5"
         id="path186" />
    </marker>
    <pattern
       id="Hatch-5"
       patternUnits="userSpaceOnUse"
       width="8"
       height="8"
       x="0"
       y="0">
      <path
         d="M8 4 l-4,4"
         stroke="#000000"
         stroke-width="0.25"
         linecap="square"
         id="path189" />
      <path
         d="M6 2 l-4,4"
         stroke="#000000"
         stroke-width="0.25"
         linecap="square"
         id="path191" />
      <path
         d="M4 0 l-4,4"
         stroke="#000000"
         stroke-width="0.25"
         linecap="square"
         id="path193" />
    </pattern>
    <symbol
       id="*MODEL_SPACE-7" />
    <symbol
       id="*PAPER_SPACE-8" />
  </defs>
  <metadata
     id="metadata5">
    <rdf:RDF>
      <cc:Work
         rdf:about="">
        <dc:format>image/svg+xml</dc:format>
        <dc:type
           rdf:resource="http://purl.org/dc/dcmitype/StillImage" />
        <dc:title></dc:title>
      </cc:Work>
    </rdf:RDF>
  </metadata>
  <g
     id="layer1">
    <g
       id="g420"
       transform="matrix(0.26458333,0,0,0.26458333,-138.0218,-103.93441)">
      <g
         id="g200" />
      <g
         id="g202" />
      <g
         id="g204" />
      <g
         id="g206" />
      <g
         id="g208" />
      <g
         id="g210" />
      <g
         id="g212" />
      <g
         id="g214" />
      <g
         id="g216" />
      <g
         id="g218" />
      <g
         id="g220" />
      <g
         id="g222" />
      <g
         id="g224" />
      <g
         id="g226" />
      <g
         id="g228" />
      <g
         id="g230" />
      <g
         id="g232" />
      <g
         id="g234" />
      <g
         id="g236" />
      <g
         id="g238" />
      <g
         id="g240" />
      <g
         id="g242" />
      <g
         id="g244" />
      <g
         id="g246" />
      <g
         id="g248" />
      <g
         id="g250" />
      <g
         id="g252" />
      <g
         id="g254" />
      <g
         id="g256" />
      <g
         id="g316">
        <path
           d="m 357.06215,970.82296 a 8.503937,8.503937 0 1 0 -17.00787,0 8.503937,8.503937 0 1 0 17.00787,0 z"
           style="fill:none;stroke:#000000"
           id="path258" />
        <path
           d="m 296.58971,1114.823 a 8.50394,8.50394 0 1 0 -17.00788,0 8.50394,8.50394 0 1 0 17.00788,0 z"
           style="fill:none;stroke:#000000"
           id="path260" />
        <path
           d="m -303.79395,1114.823 a 8.503937,8.503937 0 1 0 -17.00787,0 8.503937,8.503937 0 1 0 17.00787,0 z"
           style="fill:none;stroke:#000000"
           id="path262" />
        <path
           d="m -303.79395,970.82296 a 8.503937,8.503937 0 1 0 -17.00787,0 8.503937,8.503937 0 1 0 17.00787,0 z"
           style="fill:none;stroke:#000000"
           id="path264" />
        <path
           d="m 296.58971,970.82296 a 8.50394,8.50394 0 1 0 -17.00788,0 8.50394,8.50394 0 1 0 17.00788,0 z"
           style="fill:none;stroke:#000000"
           id="path266" />
        <path
           d="m -833.81029,932.42296 a 8.50394,8.50394 0 1 0 -17.00788,0 8.50394,8.50394 0 1 0 17.00788,0 z"
           style="fill:none;stroke:#000000"
           id="path268" />
        <path
           d="m -833.81029,1042.823 a 8.50394,8.50394 0 1 0 -17.00788,0 8.50394,8.50394 0 1 0 17.00788,0 z"
           style="fill:none;stroke:#000000"
           id="path270" />
        <path
           d="m 826.98971,1042.823 a 8.503937,8.503937 0 1 0 -17.00787,0 8.503937,8.503937 0 1 0 17.00787,0 z"
           style="fill:none;stroke:#000000"
           id="path272" />
        <path
           d="m 766.51727,932.42296 a 8.50394,8.50394 0 1 0 -17.00788,0 8.50394,8.50394 0 1 0 17.00788,0 z"
           style="fill:none;stroke:#000000"
           id="path274" />
        <path
           d="m -360.78784,970.82296 a 8.503937,8.503937 0 1 0 -17.00787,0 8.503937,8.503937 0 1 0 17.00787,0 z"
           style="fill:none;stroke:#000000"
           id="path276" />
        <path
           d="m -243.32151,970.82296 a 8.503937,8.503937 0 1 0 -17.00787,0 8.503937,8.503937 0 1 0 17.00787,0 z"
           style="fill:none;stroke:#000000"
           id="path278" />
        <path
           d="m 243.65928,970.82296 a 8.503937,8.503937 0 1 0 -17.00787,0 8.503937,8.503937 0 1 0 17.00787,0 z"
           style="fill:none;stroke:#000000"
           id="path280" />
        <path
           d="m -773.33785,932.42296 a 8.503937,8.503937 0 1 0 -17.00787,0 8.503937,8.503937 0 1 0 17.00787,0 z"
           style="fill:none;stroke:#000000"
           id="path282" />
        <path
           d="m 826.98971,932.42296 a 8.503937,8.503937 0 1 0 -17.00787,0 8.503937,8.503937 0 1 0 17.00787,0 z"
           style="fill:none;stroke:#000000"
           id="path284" />
        <path
           d="M 852.08577,918.02296 V 1035.8716"
           style="fill:none;stroke:#000000"
           id="path286" />
        <path
           d="m 852.08577,918.02296 a 19.2,19.2 0 0 0 -19.2,-19.2"
           style="fill:none;stroke:#000000"
           id="path288" />
        <path
           d="m -856.71423,898.82296 h 1689.6"
           style="fill:none;stroke:#000000"
           id="path290" />
        <path
           d="m -856.71423,898.82296 a 19.2,19.2 0 0 0 -19.2,19.2"
           style="fill:none;stroke:#000000"
           id="path292" />
        <path
           d="M -875.91423,918.02296 V 1035.8716"
           style="fill:none;stroke:#000000"
           id="path294" />
        <path
           d="m -875.91423,1035.8716 a 19.2,19.2 0 0 0 4.45015,12.2915"
           style="fill:none;stroke:#000000"
           id="path296" />
        <path
           d="m -871.46408,1048.1631 109.7928,131.7514"
           style="fill:none;stroke:#000000"
           id="path298" />
        <path
           d="m -761.67128,1179.9145 a 19.2,19.2 0 0 0 14.74985,6.9085"
           style="fill:none;stroke:#000000"
           id="path300" />
        <path
           d="M 723.09297,1186.823 H -746.92143"
           style="fill:none;stroke:#000000"
           id="path302" />
        <path
           d="m 723.09297,1186.823 a 19.2,19.2 0 0 0 14.74985,-6.9085"
           style="fill:none;stroke:#000000"
           id="path304" />
        <path
           d="m 847.63562,1048.1631 -109.7928,131.7514"
           style="fill:none;stroke:#000000"
           id="path306" />
        <path
           d="m 847.63562,1048.1631 a 19.2,19.2 0 0 0 4.45015,-12.2915"
           style="fill:none;stroke:#000000"
           id="path308" />
        <path
           d="m -585.45753,1042.823 a 26.456695,26.456695 0 1 0 -52.91339,0 26.456695,26.456695 0 1 0 52.91339,0 z"
           style="fill:none;stroke:#000000"
           id="path310" />
        <path
           d="m 614.54246,1042.823 a 26.456693,26.456693 0 1 0 -52.91338,0 26.456693,26.456693 0 1 0 52.91338,0 z"
           style="fill:none;stroke:#000000"
           id="path312" />
        <path
           d="m 20.398673,1066.823 a 32.312902,32.312902 0 1 0 -64.625803,0 32.312902,32.312902 0 1 0 64.625803,0 z"
           style="fill:none;stroke:#000000"
           id="path314" />
      </g>
      <g
         id="g318" />
      <g
         id="g320" />
      <g
         id="g322" />
      <g
         id="g324" />
      <g
         id="g326" />
      <g
         id="g328" />
      <g
         id="g330" />
      <g
         id="g332" />
      <g
         id="g334" />
    </g>
  </g>
</svg>
