<?xml version="1.0" encoding="UTF-8" standalone="no"?>
<svg
   xmlns:dc="http://purl.org/dc/elements/1.1/"
   xmlns:cc="http://creativecommons.org/ns#"
   xmlns:rdf="http://www.w3.org/1999/02/22-rdf-syntax-ns#"
   xmlns:svg="http://www.w3.org/2000/svg"
   xmlns="http://www.w3.org/2000/svg"
   xmlns:sodipodi="http://sodipodi.sourceforge.net/DTD/sodipodi-0.dtd"
   xmlns:inkscape="http://www.inkscape.org/namespaces/inkscape"
   viewBox="0 0 793.7007874015749 1122.5196850393702"
   width="793.7007874015749"
   height="1122.5196850393702"
   version="1.1"
   id="svg136"
   sodipodi:docname="Shooter Shroud with RoboDonuts-plain.svg"
   inkscape:version="1.0.1 (3bc2e813f5, 2020-09-07)">
  <metadata
     id="metadata140">
    <rdf:RDF>
      <cc:Work
         rdf:about="">
        <dc:format>image/svg+xml</dc:format>
        <dc:type
           rdf:resource="http://purl.org/dc/dcmitype/StillImage" />
        <dc:title></dc:title>
      </cc:Work>
    </rdf:RDF>
  </metadata>
  <sodipodi:namedview
     pagecolor="#ffffff"
     bordercolor="#666666"
     borderopacity="1"
     objecttolerance="10"
     gridtolerance="10"
     guidetolerance="10"
     inkscape:pageopacity="0"
     inkscape:pageshadow="2"
     inkscape:window-width="3840"
     inkscape:window-height="2066"
     id="namedview138"
     showgrid="false"
     inkscape:zoom="2.5398705"
     inkscape:cx="373.36965"
     inkscape:cy="526.33588"
     inkscape:window-x="-11"
     inkscape:window-y="-11"
     inkscape:window-maximized="1"
     inkscape:current-layer="text171"
     inkscape:document-rotation="0" />
  <defs
     id="defs22">
    <marker
       id="DistanceX"
       orient="auto"
       refX="0.0"
       refY="0.0"
       style="overflow:visible">
      <path
         d="M 3,-3 L -3,3 M 0,-5 L  0,5"
         style="stroke:#000000; stroke-width:0.5"
         id="path10" />
    </marker>
    <pattern
       id="Hatch"
       patternUnits="userSpaceOnUse"
       width="8"
       height="8"
       x="0"
       y="0">
      <path
         d="M8 4 l-4,4"
         stroke="#000000"
         stroke-width="0.25"
         linecap="square"
         id="path13" />
      <path
         d="M6 2 l-4,4"
         stroke="#000000"
         stroke-width="0.25"
         linecap="square"
         id="path15" />
      <path
         d="M4 0 l-4,4"
         stroke="#000000"
         stroke-width="0.25"
         linecap="square"
         id="path17" />
    </pattern>
    <symbol
       id="*MODEL_SPACE" />
    <symbol
       id="*PAPER_SPACE" />
    <marker
       id="DistanceX-7"
       orient="auto"
       refX="0.0"
       refY="0.0"
       style="overflow:visible">
      <path
         d="M 3,-3 L -3,3 M 0,-5 L  0,5"
         style="stroke:#000000; stroke-width:0.5"
         id="path142" />
    </marker>
    <pattern
       id="Hatch-4"
       patternUnits="userSpaceOnUse"
       width="8"
       height="8"
       x="0"
       y="0">
      <path
         d="M8 4 l-4,4"
         stroke="#000000"
         stroke-width="0.25"
         linecap="square"
         id="path145" />
      <path
         d="M6 2 l-4,4"
         stroke="#000000"
         stroke-width="0.25"
         linecap="square"
         id="path147" />
      <path
         d="M4 0 l-4,4"
         stroke="#000000"
         stroke-width="0.25"
         linecap="square"
         id="path149" />
    </pattern>
    <symbol
       id="*MODEL_SPACE-0" />
    <symbol
       id="*PAPER_SPACE-7" />
    <filter
       style="color-interpolation-filters:sRGB;"
       inkscape:label="Blur"
       id="filter4831">
      <feGaussianBlur
         stdDeviation="0.3 0.3"
         result="blur"
         id="feGaussianBlur4829" />
    </filter>
    <filter
       inkscape:collect="always"
       style="color-interpolation-filters:sRGB"
       id="filter4893"
       x="-0.0019737058"
       width="1.0039474"
       y="-0.020452225"
       height="1.0409044">
      <feGaussianBlur
         inkscape:collect="always"
         stdDeviation="0.46589848"
         id="feGaussianBlur4895" />
    </filter>
  </defs>
  <g
     inkscape:groupmode="layer"
     inkscape:label="0"
     id="g24" />
  <g
     inkscape:groupmode="layer"
     inkscape:label="SECTION_CUTTING_LINE"
     id="g26" />
  <g
     inkscape:groupmode="layer"
     inkscape:label="DETAIL_VIEW_BORDER"
     id="g28" />
  <g
     inkscape:groupmode="layer"
     inkscape:label="DETAIL_VIEW_PARENT_BORDER"
     id="g30" />
  <g
     inkscape:groupmode="layer"
     inkscape:label="TEXT"
     id="g32" />
  <g
     inkscape:groupmode="layer"
     inkscape:label="SKETCHED_GEOMETRY"
     id="g34" />
  <g
     inkscape:groupmode="layer"
     inkscape:label="VIRTUAL_SHARPS"
     id="g36" />
  <g
     inkscape:groupmode="layer"
     inkscape:label="CENTERLINES"
     id="g38" />
  <g
     inkscape:groupmode="layer"
     inkscape:label="CENTERMARKS"
     id="g40" />
  <g
     inkscape:groupmode="layer"
     inkscape:label="TABLES"
     id="g42" />
  <g
     inkscape:groupmode="layer"
     inkscape:label="IMAGES"
     id="g44" />
  <g
     inkscape:groupmode="layer"
     inkscape:label="ANNOTATION_LINES"
     id="g46" />
  <g
     inkscape:groupmode="layer"
     inkscape:label="ANNOTATION_TEXT"
     id="g48" />
  <g
     inkscape:groupmode="layer"
     inkscape:label="SIDE_THREAD_SYMBOLS"
     id="g50" />
  <g
     inkscape:groupmode="layer"
     inkscape:label="SIDE_THREAD_SYMBOLS_HIDDEN"
     id="g52" />
  <g
     inkscape:groupmode="layer"
     inkscape:label="SURFACE_THREAD_SYMBOLS"
     id="g54" />
  <g
     inkscape:groupmode="layer"
     inkscape:label="SURFACE_THREAD_SYMBOLS_ON_"
     id="g56" />
  <g
     inkscape:groupmode="layer"
     inkscape:label="SURFACE_THREAD_SYMBOLS_HID"
     id="g58" />
  <g
     inkscape:groupmode="layer"
     inkscape:label="BLIND_THREAD_SYMBOLS"
     id="g60" />
  <g
     inkscape:groupmode="layer"
     inkscape:label="BLIND_THREAD_SYMBOLS_HIDDE"
     id="g62" />
  <g
     inkscape:groupmode="layer"
     inkscape:label="EXPLODE_LINES"
     id="g64" />
  <g
     inkscape:groupmode="layer"
     inkscape:label="HIDDEN_EXPLODE_LINES"
     id="g66" />
  <g
     inkscape:groupmode="layer"
     inkscape:label="BREAK_LINES"
     id="g68" />
  <g
     inkscape:groupmode="layer"
     inkscape:label="SHEETMETAL_BEND_LINES_UP"
     id="g70" />
  <g
     inkscape:groupmode="layer"
     inkscape:label="SHEETMETAL_BEND_LINES_DOWN"
     id="g72" />
  <g
     inkscape:groupmode="layer"
     inkscape:label="SHEETMETAL_BEND_TANGENT_LI"
     id="g74" />
  <g
     inkscape:groupmode="layer"
     inkscape:label="SHEETMETAL_CUT_LINES"
     id="g76" />
  <g
     inkscape:groupmode="layer"
     inkscape:label="HIDDEN"
     id="g78" />
  <g
     inkscape:groupmode="layer"
     inkscape:label="VISIBLE"
     id="g80" />
  <g
     inkscape:groupmode="layer"
     inkscape:label="MODELSKETCH_VISIBLE"
     id="g116" />
  <g
     inkscape:groupmode="layer"
     inkscape:label="MODELSKETCH_POINT"
     id="g118" />
  <g
     inkscape:groupmode="layer"
     inkscape:label="MODELSKETCH_CONSTRUCTION"
     id="g120" />
  <g
     inkscape:groupmode="layer"
     inkscape:label="HIDDEN_BASE_VIEW"
     id="g122" />
  <g
     inkscape:groupmode="layer"
     inkscape:label="TANGENT_LINES"
     id="g124" />
  <g
     inkscape:groupmode="layer"
     inkscape:label="TANGENT_HIDDEN"
     id="g126" />
  <g
     inkscape:groupmode="layer"
     inkscape:label="INVISIBLE_LINES"
     id="g128" />
  <g
     inkscape:groupmode="layer"
     inkscape:label="VIEW_HATCHES"
     id="g130" />
  <g
     inkscape:groupmode="layer"
     inkscape:label="SECTION_JOG_LINES"
     id="g132">
    <g
       id="g337"
       transform="rotate(180,195.99549,787.23373)">
      <g
         inkscape:label="0"
         id="g156" />
      <g
         inkscape:label="SECTION_CUTTING_LINE"
         id="g158" />
      <g
         inkscape:label="DETAIL_VIEW_BORDER"
         id="g160" />
      <g
         inkscape:label="DETAIL_VIEW_PARENT_BORDER"
         id="g162" />
      <g
         inkscape:label="TEXT"
         id="g164" />
      <g
         inkscape:label="SKETCHED_GEOMETRY"
         id="g166" />
      <g
         inkscape:label="VIRTUAL_SHARPS"
         id="g168" />
      <g
         inkscape:label="CENTERLINES"
         id="g170" />
      <g
         inkscape:label="CENTERMARKS"
         id="g172" />
      <g
         inkscape:label="TABLES"
         id="g174" />
      <g
         inkscape:label="IMAGES"
         id="g176" />
      <g
         inkscape:label="ANNOTATION_LINES"
         id="g178" />
      <g
         inkscape:label="ANNOTATION_TEXT"
         id="g180" />
      <g
         inkscape:label="SIDE_THREAD_SYMBOLS"
         id="g182" />
      <g
         inkscape:label="SIDE_THREAD_SYMBOLS_HIDDEN"
         id="g184" />
      <g
         inkscape:label="SURFACE_THREAD_SYMBOLS"
         id="g186" />
      <g
         inkscape:label="SURFACE_THREAD_SYMBOLS_ON_"
         id="g188" />
      <g
         inkscape:label="SURFACE_THREAD_SYMBOLS_HID"
         id="g190" />
      <g
         inkscape:label="BLIND_THREAD_SYMBOLS"
         id="g192" />
      <g
         inkscape:label="BLIND_THREAD_SYMBOLS_HIDDE"
         id="g194" />
      <g
         inkscape:label="EXPLODE_LINES"
         id="g196" />
      <g
         inkscape:label="HIDDEN_EXPLODE_LINES"
         id="g198" />
      <g
         inkscape:label="BREAK_LINES"
         id="g200" />
      <g
         inkscape:label="SHEETMETAL_BEND_LINES_UP"
         id="g202" />
      <g
         inkscape:label="SHEETMETAL_BEND_LINES_DOWN"
         id="g204" />
      <g
         inkscape:label="SHEETMETAL_BEND_TANGENT_LI"
         id="g206" />
      <g
         inkscape:label="SHEETMETAL_CUT_LINES"
         id="g208" />
      <g
         inkscape:label="HIDDEN"
         id="g210" />
      <g
         inkscape:label="VISIBLE"
         id="g212" />
      <g
         inkscape:label="MODELSKETCH_VISIBLE"
         id="g248">
        <path
           d="m 271.584,806.1915 a 7.584,7.584 0 1 0 -15.168,0 7.584,7.584 0 1 0 15.168,0 z"
           style="fill:none;stroke:#000000"
           id="path214" />
        <path
           d="m 36.444891,883.87531 a 4.8,4.8 0 0 0 4.8,-4.8"
           style="fill:none;stroke:#000000"
           id="path216" />
        <path
           d="m -256.416,806.91314 a 7.584,7.584 0 1 0 -15.168,0 7.584,7.584 0 1 0 15.168,0 z"
           style="fill:none;stroke:#000000"
           id="path218" />
        <path
           d="m -276,1055.3197 a 276,276 0 0 0 552,0"
           style="fill:none;stroke:#000000"
           id="path220" />
        <path
           d="M -276,759.68504 V 1055.3197"
           style="fill:none;stroke:#000000"
           id="path222" />
        <path
           d="M 276,759.68504 V 1055.3197"
           style="fill:none;stroke:#000000"
           id="path224" />
        <path
           d="M -276,759.68504 H 276"
           style="fill:none;stroke:#000000"
           id="path226" />
        <path
           d="m 194.26019,1241.9959 a 7.584,7.584 0 1 0 -15.168,0 7.584,7.584 0 1 0 15.168,0 z"
           style="fill:none;stroke:#000000"
           id="path228" />
        <path
           d="m -37.334211,827.1824 a 4.8,4.8 0 0 0 -4.8,4.8"
           style="fill:none;stroke:#000000"
           id="path230" />
        <path
           d="m 41.244891,831.9824 a 4.8,4.8 0 0 0 -4.8,-4.8"
           style="fill:none;stroke:#000000"
           id="path232" />
        <path
           d="m -174.86782,1246.1267 a 7.584,7.584 0 1 0 -15.168,0 7.584,7.584 0 1 0 15.168,0 z"
           style="fill:none;stroke:#000000"
           id="path234" />
        <path
           d="M 41.244891,879.07531 V 831.9824"
           style="fill:none;stroke:#000000"
           id="path236" />
        <path
           d="m -51.317101,855.52885 a 9.6,9.6 0 1 0 -19.2,0 9.6,9.6 0 1 0 19.2,0 z"
           style="fill:none;stroke:#000000"
           id="path238" />
        <path
           d="m -42.134211,831.9824 v 47.09291"
           style="fill:none;stroke:#000000"
           id="path240" />
        <path
           d="M -37.334211,883.87531 H 36.444891"
           style="fill:none;stroke:#000000"
           id="path242" />
        <path
           d="M 36.444891,827.1824 H -37.334211"
           style="fill:none;stroke:#000000"
           id="path244" />
        <path
           d="m -42.134211,879.07531 a 4.8,4.8 0 0 0 4.8,4.8"
           style="fill:none;stroke:#000000"
           id="path246" />
      </g>
      <g
         inkscape:label="MODELSKETCH_POINT"
         id="g250" />
      <g
         inkscape:label="MODELSKETCH_CONSTRUCTION"
         id="g252" />
      <g
         inkscape:label="HIDDEN_BASE_VIEW"
         id="g254" />
      <g
         inkscape:label="TANGENT_LINES"
         id="g256" />
      <g
         inkscape:label="TANGENT_HIDDEN"
         id="g258" />
      <g
         inkscape:label="INVISIBLE_LINES"
         id="g260" />
      <g
         inkscape:label="VIEW_HATCHES"
         id="g262" />
      <g
         inkscape:label="SECTION_JOG_LINES"
         id="g264" />
    </g>
    <g
       id="g374"
       transform="matrix(0.67101542,0,0,0.6462496,177.30521,306.1734)">
      <path
         id="path3785"
         style="fill:#ff0000;fill-opacity:1;stroke-width:0.571313"
         d="m 333.7586,107.27737 c 9.21312,-4.73646 10.33353,-17.657242 2.07719,-23.954568 -7.36529,-5.617685 -18.01599,-2.641193 -21.64725,6.049632 -1.1277,2.698959 -1.06281,7.790505 0.13741,10.782546 1.12744,2.81061 5.57876,7.07254 8.37382,8.01752 2.75766,0.93235 8.39107,0.47636 11.05883,-0.89513 z m -12.35207,6.82356 c -5.7891,-1.91894 -9.49576,-5.14758 -12.57228,-10.95098 -1.17268,-2.21209 -1.36359,-3.368305 -1.36788,-8.284045 -0.004,-5.097311 0.16629,-6.061916 1.58401,-8.94886 2.11785,-4.31264 5.60343,-7.700969 10.12292,-9.840489 3.18972,-1.510004 4.35825,-1.757117 8.28405,-1.751865 3.71486,0.005 5.1716,0.284948 7.7813,1.495528 8.30648,3.853192 13.00181,11.611732 12.37012,20.440347 -0.34916,4.879994 -1.96791,8.441084 -5.56677,12.246364 -5.36129,5.66877 -13.63966,7.91292 -20.63547,5.594 z m 16.23404,6.78048 c 4.67896,-1.79596 9.8809,-5.94059 12.76089,-10.16718 10.3653,-15.211853 3.68545,-36.392944 -13.42154,-42.558254 -4.00102,-1.441956 -11.35118,-1.923801 -15.66985,-1.027249 -13.21001,2.742388 -23.02639,15.928443 -21.92494,29.451118 0.98102,12.044145 8.12333,21.050505 19.78817,24.952645 4.42322,1.47966 13.77512,1.14995 18.46727,-0.65108 z m -18.58817,7.0913 c -9.10633,-2.20784 -18.35744,-9.6757 -22.3815,-18.06724 -9.6705,-20.16623 1.28384,-43.339712 23.07333,-48.810757 4.82593,-1.211726 13.07517,-0.819589 18.40009,0.874668 4.77395,1.518957 11.58389,6.018099 15.02914,9.929346 2.98519,3.388972 6.20338,9.50262 7.42837,14.111819 1.10834,4.170314 1.07955,12.937342 -0.057,17.342594 -3.0565,11.8473 -12.93321,21.55617 -25.06633,24.64035 -4.15909,1.05723 -12.02086,1.04728 -16.42613,-0.0208 z m 79.89577,-7.92596 c 5.54863,-10.0788 10.4763,-18.77499 10.95039,-19.32488 1.35468,-1.571275 3.30947,-1.198287 8.23406,1.57111 2.51441,1.414 4.73674,2.57065 4.93852,2.57033 0.20177,-3.2e-4 1.05363,-1.22341 1.89302,-2.71797 l 1.52616,-2.717384 -12.09546,-6.70879 c -6.65249,-3.689834 -13.6719,-7.589288 -15.59868,-8.665448 l -3.50324,-1.956663 -1.59174,2.924548 c -0.87545,1.608504 -1.35572,3.011067 -1.06727,3.116811 0.28846,0.105739 2.70974,1.435768 5.38063,2.955617 3.96455,2.255985 4.88959,3.041986 5.03824,4.280885 0.13292,1.10788 -2.75881,6.811974 -10.71212,21.130244 -5.99182,10.78699 -10.89421,19.77391 -10.89421,19.97094 0,0.19703 1.34973,1.13236 2.99939,2.07851 2.74323,1.57335 3.05981,1.63901 3.70665,0.76875 0.38899,-0.52334 5.24704,-9.19782 10.79566,-19.27661 z m -13.21685,26.19431 c -9.85568,-5.13491 -11.14061,-6.177 -11.14061,-9.03501 0,-0.79871 4.5954,-9.73932 10.31484,-20.06813 5.67318,-10.24522 10.44636,-18.970355 10.60707,-19.38918 0.18932,-0.493368 -1.22734,-1.600323 -4.02327,-3.143714 -4.55915,-2.516699 -6.04368,-4.025606 -6.04368,-6.14286 0,-1.450182 4.61469,-10.138814 6.2835,-11.830682 2.10852,-2.137667 3.80192,-1.471725 22.17288,8.719652 9.73056,5.398072 18.02924,10.221129 18.44153,10.717909 1.32792,1.600031 0.78003,4.362325 -1.7444,8.794845 -4.47455,7.85663 -5.61495,8.27799 -12.37017,4.57051 -2.29012,-1.25689 -4.36879,-2.28253 -4.61925,-2.27919 -0.25047,0.003 -5.21158,8.63631 -11.02469,19.18438 -11.96504,21.71094 -12.39846,22.22273 -16.85375,19.90147 z m -145.72776,-0.17329 c 0.17802,-0.28804 -1.98906,-4.7059 -4.81573,-9.81745 -4.88685,-8.83701 -5.66345,-10.86876 -4.70219,-12.3019 0.23086,-0.34417 5.63284,-3.51966 12.00439,-7.05661 8.75189,-4.85834 11.91292,-6.34846 12.92717,-6.0939 1.02618,0.25755 2.58854,2.59345 6.63046,9.91319 2.90837,5.26693 5.39793,9.69897 5.53238,9.84898 0.24396,0.2722 6.45951,-2.90173 6.45951,-3.29851 0,-0.25669 -24.36545,-44.453744 -25.49846,-46.252232 l -0.81121,-1.28767 -2.8015,1.419635 c -1.54084,0.780799 -2.93718,1.639128 -3.10298,1.9074 -0.1658,0.268271 1.86745,4.424554 4.51833,9.236178 2.65088,4.811625 4.96959,9.220379 5.15267,9.797229 0.54145,1.70594 -1.61336,3.28376 -13.03484,9.5445 -7.62042,4.17716 -11.17211,5.82746 -12.26717,5.69997 -1.33938,-0.15594 -2.19312,-1.33959 -6.51664,-9.03481 -2.73642,-4.87045 -5.08849,-9.112449 -5.22681,-9.426672 -0.20953,-0.476 -6.68375,2.428162 -6.68375,2.998142 0,0.22788 23.73379,43.1832 25.2479,45.69568 l 1.11254,1.84612 2.77613,-1.40677 c 1.52686,-0.77372 2.92177,-1.64245 3.0998,-1.9305 z m -9.29263,9.21453 c -0.94813,-0.80468 -23.80232,-41.45447 -28.57443,-50.82413 -1.55532,-3.05374 -1.54277,-4.32035 0.0604,-6.096759 1.7609,-1.951195 10.62886,-6.710116 12.61061,-6.767385 2.28978,-0.06617 3.66182,1.589772 8.39133,10.127644 2.26281,4.08489 4.32567,7.65295 4.58413,7.92903 0.2627,0.28059 4.02014,-1.44531 8.52033,-3.91361 l 8.05039,-4.41558 -1.08451,-1.799521 C 239.33248,92.9899 234.61896,83.629586 234.61896,82.344 c 0,-2.088323 1.70437,-3.615601 7.56447,-6.778481 5.40922,-2.91952 7.08342,-3.237187 8.93522,-1.695384 1.69477,1.411055 29.77669,52.452985 29.77669,54.122345 0,2.04507 -2.02414,3.92493 -7.35378,6.8296 -5.34629,2.91375 -7.85089,3.28627 -9.54073,1.41901 -0.59116,-0.65322 -3.18829,-4.9595 -5.77142,-9.56951 -2.58313,-4.61 -4.98754,-8.31081 -5.34314,-8.22401 -1.2736,0.31089 -15.41075,8.24022 -15.41075,8.64369 0,0.22662 2.18196,4.38062 4.84879,9.23113 4.80959,8.7478 5.39757,10.46729 4.2881,12.54035 -0.7675,1.43408 -11.49768,7.41936 -13.30114,7.41936 -0.78227,0 -1.9524,-0.44991 -2.60031,-0.9998 z m 157.2231,12.9437 c -16.22974,-13.59608 -31.92256,-21.36771 -49.66132,-24.59399 -9.04956,-1.64592 -27.92807,-1.80104 -36.23881,-0.29777 -19.88937,3.59766 -35.81897,11.46889 -52.30073,25.84315 -4.20183,3.66454 -6.13359,4.42655 -7.57291,2.98722 -1.53759,-1.53759 -0.70707,-3.19184 3.45644,-6.88452 22.08304,-19.58578 46.04394,-28.99396 73.84227,-28.99396 26.69138,0 49.70108,8.75811 71.69982,27.29086 4.70485,3.96358 6.04018,5.41024 6.19064,6.70677 0.1911,1.64676 -1.00919,3.13775 -2.526,3.13775 -0.37812,0 -3.47835,-2.33798 -6.8894,-5.19551 z m -20.19908,3.13833 c -28.4623,-18.36893 -65.51208,-18.91187 -94.52829,-1.38526 -4.87035,2.94184 -6.42151,3.38659 -7.62255,2.18554 -2.41881,-2.4188 0.67603,-5.28371 11.59766,-10.73598 11.65853,-5.82016 22.12707,-8.69036 35.42143,-9.71166 16.79281,-1.29006 33.88824,2.10146 49.13296,9.74737 11.33512,5.68508 14.36833,8.71797 11.04611,11.04496 -0.71631,0.50171 -1.43798,0.90562 -1.60373,0.89758 -0.16576,-0.008 -1.71537,-0.92718 -3.44359,-2.04255 z m -239.52315,1.4401 c -1.86541,-1.0865 -1.11933,-3.84074 3.75859,-13.87518 10.88786,-22.3976 23.20733,-40.04355 40.04393,-57.35741 30.19236,-31.048233 69.57225,-51.82268 111.73755,-58.945976 22.97389,-3.881148 49.00918,-3.796925 72.55681,0.234718 13.43531,2.300291 31.52387,7.715072 44.8481,13.42521 43.67634,18.717621 80.51641,53.488378 102.92081,97.139738 5.57709,10.86604 7.8195,16.29995 7.40616,17.94685 -0.36734,1.46361 -2.54807,2.523 -3.71234,1.80343 -0.31436,-0.19428 -3.13441,-5.55313 -6.26678,-11.90853 -11.57437,-23.48385 -23.60496,-40.52309 -40.63674,-57.55487 -33.27491,-33.274903 -75.21681,-52.902834 -122.84124,-57.487128 -11.48657,-1.105689 -33.16528,-0.793749 -43.99113,0.633 -55.39002,7.299905 -102.28031,34.774805 -135.81491,79.579388 -8.97838,11.99575 -17.71931,26.79153 -23.29816,39.43683 -3.25228,7.37176 -4.22588,8.37718 -6.71065,6.92993 z m -15.78796,-0.31511 c -1.72777,-1.21018 -1.51606,-2.88842 1.12002,-8.87873 9.64686,-21.92179 21.82665,-41.77174 36.74769,-59.88933 5.65196,-6.862792 20.07863,-21.411071 27.34296,-27.57344 32.07978,-27.213463 69.77469,-43.807439 112.68747,-49.60704 11.00674,-1.487545 35.48179,-2.084711 46.8477,-1.143035 44.85088,3.715936 85.20415,19.621133 119.40451,47.063167 28.54045,22.900584 52.16565,54.008868 67.66339,89.095188 1.90582,4.31471 3.46513,8.33241 3.46513,8.92823 0,1.52329 -1.36677,2.48067 -3.23255,2.26432 -1.42638,-0.16542 -1.86796,-0.82268 -4.34583,-6.46857 C 503.46389,128.31892 480.13826,97.554374 450.52967,74.490586 420.08338,50.774264 385.04482,36.70743 343.73978,31.617951 c -9.54497,-1.176103 -41.16059,-0.990188 -51.13255,0.300684 -64.31728,8.325886 -116.91818,41.070485 -152.51287,94.940825 -9.26318,14.01924 -14.83095,24.21867 -21.18485,38.80785 -3.16308,7.26275 -4.23967,8.39517 -6.48567,6.82201 z m 446.64648,145.1471 c 3.43918,-2.89389 3.43628,-8.45142 -0.006,-11.34784 -1.35281,-1.13833 -2.36825,-1.46501 -4.55378,-1.46501 h -2.81273 v 7.14142 7.14141 h 2.81273 c 2.18801,0 3.20075,-0.32649 4.55972,-1.46998 z m -13.97199,7.02677 c -0.15357,-0.40021 -0.20978,-6.37758 -0.1249,-13.28303 l 0.15433,-12.55538 5.71314,-0.17095 c 6.86574,-0.20542 9.75061,0.5032 12.85034,3.15646 6.26711,5.36441 6.5556,13.88708 0.6632,19.59216 -1.54145,1.49245 -3.65694,2.87844 -5.01407,3.28505 -3.2191,0.96447 -13.86959,0.94629 -14.24204,-0.0243 z m -34.27881,0 c -0.15357,-0.40021 -0.20978,-6.37758 -0.12489,-13.28303 l 0.15433,-12.55538 8.7429,-0.15787 8.74291,-0.15788 -0.17321,3.01444 -0.1732,3.01444 -5.28465,0.16427 -5.28464,0.16427 v 1.97816 1.97815 h 4.5705 4.57051 v 2.84569 c 0,2.54302 -0.14879,2.88302 -1.39896,3.19679 -0.76943,0.19312 -2.82651,0.26228 -4.57129,0.15372 l -3.17232,-0.19741 5.6e-4,2.12099 5.8e-4,2.12099 5.28465,0.16426 5.28464,0.16427 0.17269,2.9994 0.17269,2.9994 h -8.6175 c -6.45232,0 -8.68764,-0.18283 -8.89671,-0.72767 z m -34.83559,0.13223 c -0.20239,-0.32748 1.84584,-4.94372 4.55164,-10.25831 l 4.91962,-9.66288 -4.15686,-0.16817 -4.15686,-0.16815 v -2.85656 -2.85657 l 8.52529,-0.15867 c 4.68892,-0.0873 8.75622,0.0722 9.03843,0.35446 0.30329,0.30329 -1.48538,4.50493 -4.37402,10.27464 l -4.88713,9.76151 4.13275,0.16767 4.13277,0.16767 0.17268,2.9994 0.17268,2.9994 h -8.85149 c -5.52372,0 -8.98985,-0.22386 -9.2195,-0.59544 z m -23.14723,-9.54538 c -0.0132,-0.23567 -0.49608,-1.31508 -1.07313,-2.39871 l -1.0492,-1.97021 -1.22373,2.3987 -1.22372,2.3987 h 2.29686 c 1.26327,0 2.28609,-0.19282 2.27292,-0.42848 z m -14.8302,9.27519 c 0,-1.02314 11.16348,-25.37527 12.03226,-26.24728 0.34668,-0.34798 0.83311,-0.2441 1.33766,0.28566 1.20241,1.2625 12.3747,25.73625 12.0146,26.31891 -0.1728,0.27958 -1.58861,0.50834 -3.14626,0.50834 -2.67417,0 -2.88526,-0.11151 -3.78563,-1.99961 l -0.95354,-1.99959 -4.89318,0.0123 -4.89318,0.0123 -0.85697,1.8444 c -0.78656,1.69287 -1.10339,1.85859 -3.85637,2.0171 -2.45481,0.14133 -2.99939,0.004 -2.99939,-0.75265 z m -29.44586,0.15419 c -0.15699,-0.40912 -0.216,-6.39378 -0.13111,-13.29924 l 0.15433,-12.5554 h 3.14222 3.14222 l 0.15592,10.11792 0.15592,10.11792 4.70025,0.16572 4.70024,0.16572 v 2.85657 2.85656 l -7.86727,0.15903 c -6.05026,0.1223 -7.9332,-0.0128 -8.15272,-0.58482 z m -90.27373,-0.0162 c -0.15358,-0.40021 -0.20979,-6.37758 -0.1249,-13.28304 l 0.15432,-12.55537 h 3.14223 3.14223 l 0.15591,10.11701 0.15591,10.11702 4.41459,0.16662 4.4146,0.16663 0.17268,2.9994 0.17269,2.99939 h -7.76052 c -5.75826,0 -7.83256,-0.18774 -8.03974,-0.72766 z m -26.38612,-11.1271 c -0.53548,-1.17833 -1.04551,-2.24954 -1.13338,-2.38047 -0.26567,-0.39582 -0.65141,0.19347 -1.57746,2.40981 l -0.8829,2.11309 h 2.28368 2.28367 z m -14.10634,11.35038 c -0.32831,-0.53123 11.13771,-25.47172 12.19746,-26.53147 0.40447,-0.40447 0.80891,-0.42253 1.1788,-0.0527 1.16692,1.16692 12.49425,26.25184 12.05417,26.69457 -0.25314,0.25467 -1.7173,0.38322 -3.2537,0.28565 -2.53338,-0.16087 -2.86952,-0.35024 -3.61069,-2.03415 l -0.81724,-1.85677 h -4.93291 -4.9329 l -0.95354,1.9996 c -0.90037,1.8881 -1.11145,1.99959 -3.78563,1.99959 -1.55765,0 -2.97238,-0.22697 -3.14382,-0.50438 z m -62.33242,-0.1932 c -0.15992,-0.41675 -0.22133,-6.40766 -0.13644,-13.31312 l 0.15433,-12.55537 h 3.14222 3.14223 v 13.1402 13.14021 l -3.00579,0.17291 c -2.09887,0.12074 -3.09351,-0.0557 -3.29655,-0.58483 z m -63.11224,-12.69843 v -13.45573 h 3.15275 3.15275 l -0.15335,13.28304 -0.15336,13.28304 -2.99939,0.17269 -2.9994,0.17268 z m -24.32163,-2.92723 c 1.24108,-1.24108 1.12982,-3.50835 -0.20729,-4.22395 -0.60779,-0.32528 -2.27888,-0.59141 -3.71354,-0.59141 h -2.60847 v 2.85657 2.85657 h 2.81576 c 1.79803,0 3.14026,-0.3245 3.71354,-0.89778 z m -13.11729,15.62566 c -0.15993,-0.41675 -0.22132,-6.40766 -0.13644,-13.31312 l 0.15433,-12.55537 6.5701,-0.16581 c 7.81341,-0.19718 8.5246,-0.0548 11.12217,2.22584 3.91321,3.43584 3.80643,8.65724 -0.24663,12.05999 l -2.21795,1.86209 2.56735,4.70988 c 1.41205,2.59043 2.40547,4.97182 2.20759,5.29198 -0.19786,0.32015 -1.7057,0.5821 -3.35073,0.5821 h -2.99098 l -2.52031,-5.14182 c -1.74735,-3.56489 -2.82787,-5.14182 -3.52316,-5.14182 -0.86729,0 -1.02517,0.67581 -1.16793,4.99899 l -0.16507,4.99899 -3.00579,0.17291 c -2.09887,0.12074 -3.09351,-0.0557 -3.29655,-0.58483 z m 263.96469,0.73467 c -4.12188,-1.00346 -8.09488,-4.35142 -9.68338,-8.15996 -0.48725,-1.16824 -0.88592,-3.55459 -0.88592,-5.303 0,-6.98012 4.78547,-12.51616 11.8337,-13.68972 2.98585,-0.49715 7.7521,0.81065 10.16186,2.7883 l 1.71394,1.40661 -2.13605,2.16061 -2.13606,2.16061 -1.66563,-0.98392 c -4.75146,-2.80675 -10.916,0.76814 -10.916,6.33031 0,2.0092 2.08533,5.25535 4.01635,6.25207 1.99958,1.03213 5.92156,0.6958 6.15349,-0.52768 0.12931,-0.68216 -0.28114,-1.01164 -1.42336,-1.14262 -1.49415,-0.17135 -1.60506,-0.36171 -1.60506,-2.75497 v -2.57091 h 4.5705 4.57052 l 0.16253,5.8311 0.16255,5.83109 -1.59083,0.81236 c -1.71331,0.87491 -7.03102,2.13094 -8.61754,2.03546 -0.53442,-0.0321 -1.74294,-0.24624 -2.68561,-0.47574 z m -125.11764,-6.88226 -7.42708,-7.43726 0.18267,5.80098 c 0.10047,3.19054 0.028,6.41724 -0.16105,7.17044 -0.31534,1.25642 -0.58977,1.35526 -3.32489,1.1974 l -2.98117,-0.17205 -0.15339,-13.29691 c -0.13144,-11.39383 -0.0306,-13.34402 0.70433,-13.62606 0.56547,-0.21698 3.3431,2.02165 8.15179,6.56997 l 7.29405,6.89912 0.28565,-6.41328 0.28565,-6.41325 h 3.14223 3.14223 v 13.41803 c 0,11.4747 -0.12413,13.44137 -0.85697,13.5791 -0.47168,0.0886 -4.19621,-3.18278 -8.28405,-7.27623 z m -68.08229,6.89555 c -3.08312,-0.78056 -6.77947,-3.30582 -8.38076,-5.72554 -7.89984,-11.93746 5.26698,-26.57076 17.78003,-19.76031 3.45058,1.87804 3.68383,2.83743 1.25551,5.16392 -1.695,1.6239 -1.75264,1.63549 -3.37321,0.6782 -3.36853,-1.98984 -8.37226,-0.77525 -10.03247,2.43525 -2.66257,5.14881 0.76263,10.87365 6.50575,10.87365 1.95906,0 2.33994,-0.18598 2.33994,-1.14263 0,-0.84445 -0.38088,-1.14262 -1.45959,-1.14262 -1.38483,0 -1.45067,-0.139 -1.28546,-2.71374 l 0.17414,-2.71374 h 4.5705 4.57051 v 5.9809 5.98091 l -2.67358,0.99268 c -3.31122,1.22942 -7.5996,1.69858 -9.99131,1.09307 z m -97.065814,-7.4468 c 2.211051,-1.45754 3.140256,-3.24165 3.140256,-6.02945 0,-2.78779 -0.929205,-4.57191 -3.140256,-6.02944 -3.640223,-2.39966 -8.854533,-0.56885 -10.470215,3.67621 -2.331903,6.12687 4.99433,11.99241 10.470215,8.38268 z m -6.817239,7.43351 c -4.121886,-1.00346 -8.094878,-4.35142 -9.683374,-8.15996 -1.136085,-2.72385 -1.136085,-7.88214 0,-10.606 1.748841,-4.19298 6.316672,-7.70804 10.987153,-8.45487 3.053155,-0.48823 7.855188,0.9769 10.567555,3.22421 2.797012,2.31744 4.465543,5.65431 4.828432,9.65631 0.565018,6.23111 -3.590221,12.19229 -9.779916,14.03043 -3.056499,0.90769 -4.24557,0.96094 -6.91985,0.30988 z m 221.669613,31.44384 c -14.41074,-2.67026 -24.08332,-6.54054 -36.66549,-14.67089 -5.45758,-3.52658 -6.40581,-4.80834 -5.06783,-6.85037 0.50091,-0.76448 1.37965,-1.38997 1.95276,-1.38997 0.57309,0 3.18983,1.43763 5.81496,3.19473 9.54125,6.38633 20.20576,10.95333 31.46296,13.47381 5.23911,1.17302 7.39586,1.3262 18.49942,1.31379 10.80355,-0.0121 13.34586,-0.18883 18.10078,-1.25843 11.46625,-2.5793 21.13501,-6.6572 30.80182,-12.99098 5.9922,-3.92614 8.05853,-4.50959 9.09725,-2.56872 1.06865,1.99681 0.0889,3.26616 -5.30627,6.87495 -10.05671,6.72682 -21.8999,11.78573 -33.464,14.29438 -8.0904,1.75509 -27.18251,2.06819 -35.22636,0.5777 z m 4.85616,15.88989 c -22.15595,-2.11612 -41.16954,-10.39726 -60.02434,-26.14291 -7.12518,-5.95023 -10.33417,-9.45376 -9.87252,-10.77869 0.42994,-1.23393 1.85397,-2.45083 2.86797,-2.45083 0.40645,0 2.9925,2.0793 5.74676,4.62066 12.90208,11.90475 26.47381,20.22877 40.38518,24.76965 11.74803,3.83474 26.85338,5.48182 40.27946,4.39207 24.70497,-2.00523 42.65451,-10.14559 63.57321,-28.8313 5.85801,-5.23268 7.82288,-6.05603 9.03729,-3.78687 0.99086,1.85143 0.24439,3.03568 -4.74766,7.53204 -21.28271,19.16943 -41.1807,28.40706 -66.10675,30.69003 -7.37884,0.67583 -13.96277,0.67152 -21.1386,-0.0138 z m -51.00933,17.00509 c 3.58226,-5.28505 6.64065,-9.94129 6.79641,-10.34721 0.38689,-1.00822 -5.35959,-4.68471 -6.12539,-3.91891 -0.31207,0.31206 -4.08917,5.79768 -8.39355,12.19026 -4.30438,6.39258 -8.23627,11.86754 -8.73752,12.16657 -1.24369,0.74195 -3.73251,0.0374 -4.20658,-1.19074 -0.21329,-0.55261 -2.42871,-10.5171 -4.92315,-22.14333 -2.49444,-11.62623 -4.72809,-21.59833 -4.96366,-22.16023 -0.33037,-0.78802 -3.85701,4.0761 -15.4215,21.2701 -8.24623,12.26046 -14.98854,22.48966 -14.98289,22.73155 0.006,0.24189 1.32973,1.3029 2.94243,2.35778 2.29497,1.50118 3.02875,1.74949 3.37662,1.14264 0.24444,-0.42645 4.32912,-6.49563 9.07704,-13.48708 6.9955,-10.30106 8.87861,-12.71173 9.92979,-12.71173 2.95406,0 3.06376,0.34536 7.53375,23.71817 2.34276,12.24991 4.3955,22.85562 4.56163,23.56824 0.24658,1.0577 1.83764,-0.98847 8.66273,-11.14061 4.59836,-6.83996 11.29159,-16.76042 14.87384,-22.04547 z m -26.17259,40.93742 c -0.81559,-0.50631 -1.77419,-1.38699 -2.1302,-1.95707 -0.35602,-0.57008 -2.35919,-9.98271 -4.45148,-20.91697 -2.09229,-10.93426 -3.9617,-20.05635 -4.15425,-20.27131 -0.19254,-0.21496 -3.56371,4.37154 -7.49149,10.19224 -3.92778,5.82069 -7.57443,10.81701 -8.10366,11.10296 -1.92193,1.03842 -3.65042,0.45471 -8.89594,-3.00416 -5.67725,-3.74357 -6.42425,-4.5793 -6.42425,-7.18747 0,-2.28487 33.06521,-51.56639 35.20522,-52.47106 1.99506,-0.84339 3.77066,-0.41828 5.82337,1.39422 1.63551,1.44414 1.89338,2.35427 5.52807,19.51117 2.09689,9.89801 4.06813,18.99636 4.38054,20.21855 l 0.568,2.22218 6.8043,-10.22056 c 6.91609,-10.3885 8.51946,-12.01292 11.10508,-11.25084 1.3175,0.38832 9.09182,5.48357 10.99778,7.20791 2.84194,2.57111 2.55734,3.12269 -15.323,29.6973 -9.13466,13.57636 -17.13296,25.13419 -17.77401,25.68408 -1.44531,1.23978 -3.71412,1.25934 -5.66408,0.0489 z m 167.77005,-24.47247 c -2.4218,-18.23829 -2.47056,-19.78047 -0.66357,-20.98703 0.34575,-0.23086 1.07089,-0.42368 1.61144,-0.42849 0.54055,-0.004 7.86765,4.7182 16.28243,10.49558 8.41479,5.77738 15.38921,10.42255 15.4987,10.3226 0.10951,-0.1 -3.21035,-12.2721 -7.37745,-27.04921 l -7.57656,-26.86748 -2.33486,1.42499 c -1.28418,0.78375 -2.63672,1.60885 -3.00565,1.83357 -0.48046,0.29264 0.60596,4.52677 3.82901,14.92292 3.38262,10.9109 4.36148,14.77276 3.94273,15.55519 -0.55479,1.03663 -2.28061,2.20967 -3.25097,2.20967 -0.28049,0 -6.59613,-4.22456 -14.03474,-9.38791 -7.43862,-5.16334 -13.52826,-9.08398 -13.53255,-8.71253 -0.004,0.37146 0.95165,7.83897 2.12429,16.59448 l 2.13208,15.91912 -1.33061,1.07746 c -0.73184,0.59261 -1.78839,1.07746 -2.3479,1.07746 -0.55951,0 -5.93937,-4.79158 -11.95525,-10.64797 l -10.93796,-10.64798 -1.87186,1.00807 c -4.23639,2.28144 -4.27681,2.37034 -2.06571,4.54296 3.70192,3.63747 39.06863,36.26365 39.18089,36.14481 0.0614,-0.065 -0.98074,-8.34517 -2.31593,-18.40028 z m -1.32346,23.56667 c -7.33825,-6.62063 -41.76144,-38.4878 -43.13111,-39.9285 -1.71571,-1.80467 -2.11195,-4.72817 -0.85697,-6.32276 1.27887,-1.62493 11.13109,-7.30938 12.66855,-7.30938 1.14391,0 3.48068,1.88888 9.90767,8.00868 4.62587,4.40477 8.47543,7.81122 8.55459,7.5699 0.0792,-0.24132 -0.60299,-5.94102 -1.51588,-12.66599 -1.26978,-9.35411 -1.51467,-12.54574 -1.04218,-13.58273 0.76113,-1.67052 3.79571,-3.61269 5.64469,-3.61269 0.83559,0 5.515,2.89007 11.93014,7.36824 5.8054,4.05254 10.6395,7.28906 10.74244,7.1923 0.10294,-0.0968 -1.24679,-4.78524 -2.99939,-10.41883 -1.75261,-5.63359 -3.18656,-10.92685 -3.18656,-11.76281 0,-1.98267 1.08648,-3.00438 6.98108,-6.56489 5.45241,-3.2934 7.5769,-3.66853 9.44651,-1.66795 0.8565,0.91649 3.59079,9.75881 9.52626,30.80664 4.57873,16.23666 8.32495,30.32468 8.32495,31.3067 0,3.4652 -4.62201,6.05931 -7.81386,4.38554 -0.88704,-0.46516 -7.25055,-4.72031 -14.14111,-9.45589 -6.89057,-4.73558 -12.61323,-8.52523 -12.71701,-8.42144 -0.10379,0.10379 0.76462,7.54192 1.92978,16.52919 2.32104,17.90288 2.31207,18.09092 -0.95539,20.02105 -2.61809,1.54655 -4.33285,1.20009 -7.2972,-1.47438 z m -80.60575,-1.96047 c 6.4404,-3.50531 9.12524,-11.31776 6.14901,-17.89267 -4.87724,-10.7745 -19.71724,-11.53219 -25.22501,-1.28793 -2.06469,3.84026 -2.43736,6.86903 -1.31868,10.71716 2.60021,8.94442 12.19519,12.92616 20.39468,8.46344 z m -10.74133,7.81753 c -3.56237,-0.74064 -7.96202,-3.18118 -10.55903,-5.85721 -9.72856,-10.02463 -6.88585,-26.36697 5.66091,-32.54371 3.47761,-1.71203 4.26919,-1.87552 8.96811,-1.85223 6.28914,0.0312 9.21425,1.18776 13.67588,5.4074 4.48108,4.23801 6.32603,8.56971 6.32946,14.8607 0.003,4.3537 -0.19617,5.27204 -1.8787,8.68971 -4.06644,8.26012 -13.55971,13.09103 -22.19663,11.29534 z m 10.91403,7.1225 c 9.73699,-2.53616 18.10344,-10.92662 20.27115,-20.32931 1.05336,-4.56909 0.71929,-11.82829 -0.73316,-15.93127 -4.22014,-11.92128 -14.07536,-18.90888 -26.69538,-18.92767 -8.28068,-0.0123 -14.92529,2.90866 -20.50548,9.01428 -10.15554,11.11178 -9.83092,27.9949 0.74439,38.71464 6.97662,7.0719 17.35958,9.94911 26.91848,7.45933 z m -14.54475,6.30619 c -12.86171,-2.9048 -23.30934,-13.55723 -26.05915,-26.56999 -3.47192,-16.42993 6.36011,-33.87753 22.21834,-39.42792 4.47416,-1.56596 13.2662,-2.12995 18.25809,-1.17122 9.593,1.84242 19.27314,9.16958 23.48052,17.77307 3.14632,6.43376 3.99794,10.55693 3.65113,17.6771 -0.34256,7.03291 -1.66666,11.37201 -5.08335,16.65831 -4.36317,6.75067 -10.41885,11.39618 -18.59758,14.26682 -4.38959,1.54069 -12.88911,1.9183 -17.868,0.79383 z m 2.28525,20.49655 c -29.43036,-2.66715 -52.21437,-8.79051 -76.27034,-20.49816 -43.69489,-21.2656 -79.93694,-59.53221 -99.90891,-105.49003 -3.0271,-6.9657 -3.27004,-8.7989 -1.28583,-9.70296 2.11778,-0.96493 3.40575,0.14111 5.19985,4.46535 0.8876,2.13934 3.50235,7.72247 5.81056,12.40693 30.0543,60.9947 85.68999,101.88108 151.60052,111.41049 15.23593,2.20282 37.59927,2.60485 51.70387,0.92949 58.20897,-6.91414 107.3479,-35.88481 141.14367,-83.21359 7.9204,-11.09203 15.83877,-24.97091 21.15096,-37.07229 3.47762,-7.92214 4.4284,-9.42667 5.95717,-9.42667 1.10346,0 2.85656,1.73137 2.85656,2.82116 0,1.2532 -5.06306,12.53956 -9.16935,20.43992 -23.15998,44.55901 -60.77598,79.3825 -105.69172,97.84546 -17.10477,7.03106 -33.90752,11.41341 -53.96204,14.07392 -6.03344,0.80042 -33.60033,1.51255 -39.13497,1.01098 z m -1.14263,14.87199 c -1.09977,-0.12409 -4.82759,-0.49993 -8.28404,-0.83518 -41.19551,-3.99575 -80.98531,-20.39179 -114.23444,-47.07221 -7.15456,-5.74111 -21.70272,-19.88312 -28.2682,-27.47903 -16.16735,-18.70476 -29.85743,-40.77393 -40.02842,-64.52805 -3.24383,-7.5759 -3.54642,-9.71814 -1.50413,-10.64867 2.30989,-1.05246 3.33194,0.13228 6.30057,7.3034 21.16131,51.11802 60.07555,93.41676 106.89176,116.18849 31.94794,15.5397 63.84443,22.38975 100.18924,21.51649 23.06576,-0.5542 41.56516,-3.68171 62.63508,-10.5891 17.98195,-5.89504 38.38663,-16.12577 54.25504,-27.20299 34.06832,-23.78196 62.58889,-59.71337 79.15138,-99.71819 2.93025,-7.07772 3.86175,-8.29896 5.93338,-7.77901 2.71388,0.68114 2.52176,2.56842 -1.13109,11.11116 -31.44261,73.53331 -93.21193,123.90061 -167.91701,136.92112 -11.78435,2.05393 -19.17783,2.64675 -35.42143,2.84014 -9.11245,0.10849 -17.4679,0.0957 -18.56769,-0.0284 z"
         inkscape:connector-curvature="0" />
      <g
         aria-label="ROBODONUTS"
         transform="matrix(1.035691,0,0,1.5546796,-15.432675,-135.97649)"
         id="flowRoot4833"
         style="font-style:normal;font-weight:normal;font-size:40px;line-height:1.25;font-family:sans-serif;letter-spacing:0px;word-spacing:0px;fill:#000000;fill-opacity:1;stroke:none;stroke-width:4.83419;stroke-miterlimit:4;stroke-dasharray:none;filter:url(#filter4893)">
        <path
           d="m 70.022244,228.28893 q 0,-1.97396 -0.810733,-3.38393 -0.810733,-1.40997 -2.784692,-2.2207 -1.374721,-0.56399 -3.207683,-0.66974 -1.832962,-0.141 -4.265162,-0.141 h -4.899648 v 14.13496 h 4.159414 q 3.242932,0 5.428387,-0.31724 2.185454,-0.31725 3.665924,-1.44522 1.40997,-1.09273 2.044457,-2.39695 0.669736,-1.33947 0.669736,-3.56018 z m 21.114311,36.41249 H 74.604649 l -14.311202,-19.2461 h -6.239121 v 19.2461 h -13.46522 v -52.48615 h 22.700528 q 4.652903,0 8.001584,0.52873 3.34868,0.52874 6.274369,2.29121 2.960939,1.76246 4.688153,4.5824 1.762463,2.78469 1.762463,7.01461 0,5.81612 -2.714193,9.48205 -2.678945,3.66592 -7.684341,6.09812 z"
           style="font-style:normal;font-variant:normal;font-weight:bold;font-stretch:normal;font-size:72.1905px;font-family:Verdana;-inkscape-font-specification:'Verdana Bold';text-align:center;text-anchor:middle;fill:none;stroke:#ff0000;stroke-width:4.83419;stroke-linejoin:round;stroke-miterlimit:4;stroke-dasharray:none;stroke-opacity:1"
           id="path135" />
        <path
           d="m 148.09937,238.47597 q 0,12.54874 -7.19085,19.95108 -7.19085,7.3671 -19.88059,7.3671 -12.65448,0 -19.84533,-7.3671 -7.190854,-7.40234 -7.190854,-19.95108 0,-12.65449 7.190854,-19.98633 7.19085,-7.3671 19.84533,-7.3671 12.61924,0 19.84534,7.3671 7.2261,7.33184 7.2261,19.98633 z m -17.94188,13.28897 q 1.97396,-2.39695 2.92569,-5.63988 0.95173,-3.27818 0.95173,-7.68434 0,-4.7234 -1.09272,-8.03683 -1.09273,-3.31343 -2.85519,-5.35789 -1.79772,-2.11496 -4.15942,-3.06669 -2.32645,-0.95173 -4.8644,-0.95173 -2.57319,0 -4.8644,0.91648 -2.25595,0.91648 -4.15941,3.03144 -1.76246,1.97396 -2.89044,5.46364 -1.09273,3.45442 -1.09273,8.03683 0,4.68815 1.05748,8.00158 1.09273,3.27818 2.85519,5.35789 1.76247,2.07971 4.12417,3.06669 2.3617,0.98698 4.97014,0.98698 2.60845,0 4.97015,-0.98698 2.3617,-1.02223 4.12416,-3.13719 z"
           style="font-style:normal;font-variant:normal;font-weight:bold;font-stretch:normal;font-size:72.1905px;font-family:Verdana;-inkscape-font-specification:'Verdana Bold';text-align:center;text-anchor:middle;fill:none;stroke:#ff0000;stroke-width:4.83419;stroke-linejoin:round;stroke-miterlimit:4;stroke-dasharray:none;stroke-opacity:1"
           id="path137" />
        <path
           d="m 203.33497,248.62776 q 0,3.80692 -1.55096,6.80311 -1.51572,2.99618 -4.19467,4.97014 -3.10193,2.32646 -6.83835,3.31343 -3.70118,0.98698 -9.41156,0.98698 h -22.91202 v -52.48615 h 20.37408 q 6.34486,0 9.27055,0.42299 2.96094,0.42299 5.85138,1.86821 2.99619,1.51572 4.44141,4.08891 1.48047,2.53795 1.48047,5.81613 0,3.80692 -2.00921,6.73261 -2.00921,2.89044 -5.67513,4.51191 v 0.28199 q 5.14639,1.02223 8.14258,4.22991 3.03143,3.20769 3.03143,8.45983 z m -17.34263,-21.57255 q 0,-1.30423 -0.66974,-2.60845 -0.63449,-1.30422 -2.2912,-1.93871 -1.48047,-0.56399 -3.70118,-0.59924 -2.18545,-0.0705 -6.16862,-0.0705 h -1.26897 v 11.10351 h 2.11495 q 3.20769,0 5.46364,-0.10574 2.25595,-0.10575 3.56018,-0.70499 1.83296,-0.81073 2.39695,-2.07971 0.56399,-1.30422 0.56399,-2.99618 z m 3.31343,21.36105 q 0,-2.5027 -0.98698,-3.84217 -0.95173,-1.37472 -3.27818,-2.04445 -1.58622,-0.45825 -4.37091,-0.49349 -2.7847,-0.0352 -5.81613,-0.0352 h -2.96094 v 13.07747 h 0.98698 q 5.71038,0 8.17783,-0.0353 2.46745,-0.0352 4.54715,-0.91648 2.11496,-0.88123 2.89044,-2.32645 0.81074,-1.48047 0.81074,-3.38393 z"
           style="font-style:normal;font-variant:normal;font-weight:bold;font-stretch:normal;font-size:72.1905px;font-family:Verdana;-inkscape-font-specification:'Verdana Bold';text-align:center;text-anchor:middle;fill:none;stroke:#ff0000;stroke-width:4.83419;stroke-linejoin:round;stroke-miterlimit:4;stroke-dasharray:none;stroke-opacity:1"
           id="path139" />
        <path
           d="m 264.45719,238.47597 q 0,12.54874 -7.19085,19.95108 -7.19085,7.3671 -19.88058,7.3671 -12.65449,0 -19.84534,-7.3671 -7.19085,-7.40234 -7.19085,-19.95108 0,-12.65449 7.19085,-19.98633 7.19085,-7.3671 19.84534,-7.3671 12.61923,0 19.84533,7.3671 7.2261,7.33184 7.2261,19.98633 z m -17.94187,13.28897 q 1.97396,-2.39695 2.92569,-5.63988 0.95173,-3.27818 0.95173,-7.68434 0,-4.7234 -1.09273,-8.03683 -1.09273,-3.31343 -2.85519,-5.35789 -1.79771,-2.11496 -4.15942,-3.06669 -2.32645,-0.95173 -4.86439,-0.95173 -2.5732,0 -4.8644,0.91648 -2.25596,0.91648 -4.15942,3.03144 -1.76246,1.97396 -2.89044,5.46364 -1.09272,3.45442 -1.09272,8.03683 0,4.68815 1.05747,8.00158 1.09273,3.27818 2.85519,5.35789 1.76247,2.07971 4.12417,3.06669 2.3617,0.98698 4.97015,0.98698 2.60844,0 4.97014,-0.98698 2.3617,-1.02223 4.12417,-3.13719 z"
           style="font-style:normal;font-variant:normal;font-weight:bold;font-stretch:normal;font-size:72.1905px;font-family:Verdana;-inkscape-font-specification:'Verdana Bold';text-align:center;text-anchor:middle;fill:none;stroke:#ff0000;stroke-width:4.83419;stroke-linejoin:round;stroke-miterlimit:4;stroke-dasharray:none;stroke-opacity:1"
           id="path141" />
        <path
           d="m 324.38096,238.51122 q 0,7.33185 -3.34868,13.14798 -3.34868,5.78088 -8.45982,8.88281 -3.84217,2.32645 -8.42458,3.24293 -4.5824,0.91648 -10.85677,0.91648 h -18.50587 v -52.48615 h 19.03461 q 6.41536,0 11.06827,1.09272 4.6529,1.05748 7.82533,3.03144 5.42839,3.31343 8.53033,8.95331 3.13718,5.60464 3.13718,13.21848 z M 310.387,238.40547 q 0,-5.18164 -1.90346,-8.84756 -1.86821,-3.70118 -5.95712,-5.78088 -2.07971,-1.02223 -4.26517,-1.37473 -2.1502,-0.38774 -6.52111,-0.38774 h -3.41918 v 32.85232 h 3.41918 q 4.82915,0 7.0851,-0.42299 2.25596,-0.45824 4.40616,-1.62147 3.70117,-2.11495 5.42839,-5.63988 1.72721,-3.56018 1.72721,-8.77707 z"
           style="font-style:normal;font-variant:normal;font-weight:bold;font-stretch:normal;font-size:72.1905px;font-family:Verdana;-inkscape-font-specification:'Verdana Bold';text-align:center;text-anchor:middle;fill:none;stroke:#ff0000;stroke-width:4.83419;stroke-linejoin:round;stroke-miterlimit:4;stroke-dasharray:none;stroke-opacity:1"
           id="path143" />
        <path
           d="m 385.74992,238.47597 q 0,12.54874 -7.19085,19.95108 -7.19085,7.3671 -19.88059,7.3671 -12.65449,0 -19.84534,-7.3671 -7.19085,-7.40234 -7.19085,-19.95108 0,-12.65449 7.19085,-19.98633 7.19085,-7.3671 19.84534,-7.3671 12.61924,0 19.84534,7.3671 7.2261,7.33184 7.2261,19.98633 z m -17.94188,13.28897 q 1.97396,-2.39695 2.92569,-5.63988 0.95173,-3.27818 0.95173,-7.68434 0,-4.7234 -1.09273,-8.03683 -1.09272,-3.31343 -2.85519,-5.35789 -1.79771,-2.11496 -4.15941,-3.06669 -2.32645,-0.95173 -4.8644,-0.95173 -2.5732,0 -4.8644,0.91648 -2.25595,0.91648 -4.15941,3.03144 -1.76247,1.97396 -2.89044,5.46364 -1.09273,3.45442 -1.09273,8.03683 0,4.68815 1.05748,8.00158 1.09273,3.27818 2.85519,5.35789 1.76246,2.07971 4.12416,3.06669 2.3617,0.98698 4.97015,0.98698 2.60845,0 4.97015,-0.98698 2.3617,-1.02223 4.12416,-3.13719 z"
           style="font-style:normal;font-variant:normal;font-weight:bold;font-stretch:normal;font-size:72.1905px;font-family:Verdana;-inkscape-font-specification:'Verdana Bold';text-align:center;text-anchor:middle;fill:none;stroke:#ff0000;stroke-width:4.83419;stroke-linejoin:round;stroke-miterlimit:4;stroke-dasharray:none;stroke-opacity:1"
           id="path146" />
        <path
           d="m 443.80547,264.70142 h -13.04222 l -22.27754,-36.02475 v 36.02475 h -12.40774 v -52.48615 h 16.17941 l 19.14035,30.06762 v -30.06762 h 12.40774 z"
           style="font-style:normal;font-variant:normal;font-weight:bold;font-stretch:normal;font-size:72.1905px;font-family:Verdana;-inkscape-font-specification:'Verdana Bold';text-align:center;text-anchor:middle;fill:none;stroke:#ff0000;stroke-width:4.83419;stroke-linejoin:round;stroke-miterlimit:4;stroke-dasharray:none;stroke-opacity:1"
           id="path148" />
        <path
           d="m 503.16523,245.70207 q 0,9.7288 -5.92187,14.91044 -5.92188,5.18164 -17.44839,5.18164 -11.52651,0 -17.44839,-5.18164 -5.88662,-5.18164 -5.88662,-14.87519 v -33.52205 h 13.60621 v 32.74656 q 0,5.46364 2.29121,8.14259 2.2912,2.67894 7.43759,2.67894 5.07589,0 7.40235,-2.5732 2.3617,-2.57319 2.3617,-8.24833 v -32.74656 h 13.60621 z"
           style="font-style:normal;font-variant:normal;font-weight:bold;font-stretch:normal;font-size:72.1905px;font-family:Verdana;-inkscape-font-specification:'Verdana Bold';text-align:center;text-anchor:middle;fill:none;stroke:#ff0000;stroke-width:4.83419;stroke-linejoin:round;stroke-miterlimit:4;stroke-dasharray:none;stroke-opacity:1"
           id="path150" />
        <path
           d="m 556.88512,222.36705 h -16.39091 v 42.33437 H 526.9585 v -42.33437 h -16.39091 v -10.15178 h 46.31753 z"
           style="font-style:normal;font-variant:normal;font-weight:bold;font-stretch:normal;font-size:72.1905px;font-family:Verdana;-inkscape-font-specification:'Verdana Bold';text-align:center;text-anchor:middle;fill:none;stroke:#ff0000;stroke-width:4.83419;stroke-linejoin:round;stroke-miterlimit:4;stroke-dasharray:none;stroke-opacity:1"
           id="path152" />
        <path
           d="m 607.04483,248.20477 q 0,7.75484 -6.59161,12.61923 -6.55637,4.82915 -17.83613,4.82915 -6.52112,0 -11.38551,-1.12797 -4.82915,-1.16323 -9.05907,-2.92569 V 249.0155 h 1.48047 q 4.19467,3.34868 9.37631,5.14639 5.21689,1.79772 10.01079,1.79772 1.23372,0 3.24293,-0.2115 2.00921,-0.2115 3.27818,-0.70499 1.55097,-0.63448 2.53795,-1.58621 1.02223,-0.95173 1.02223,-2.81994 0,-1.72722 -1.48047,-2.96094 -1.44522,-1.26898 -4.26516,-1.93871 -2.96094,-0.70499 -6.27437,-1.30422 -3.27818,-0.63449 -6.16862,-1.58622 -6.62686,-2.15021 -9.55255,-5.81613 -2.89044,-3.70117 -2.89044,-9.16481 0,-7.33185 6.55636,-11.9495 6.59161,-4.6529 16.91965,-4.6529 5.18164,0 10.22229,1.02222 5.07589,0.98698 8.77706,2.5027 v 12.0905 h -1.44522 q -3.17243,-2.53795 -7.79008,-4.22991 -4.58241,-1.72722 -9.37631,-1.72722 -1.69196,0 -3.38393,0.24675 -1.65671,0.2115 -3.20768,0.84598 -1.37472,0.52874 -2.3617,1.62147 -0.98698,1.05748 -0.98698,2.4322 0,2.0797 1.58622,3.20768 1.58621,1.09273 5.99237,2.00921 2.89044,0.59924 5.53414,1.16322 2.67894,0.56399 5.74563,1.55097 6.02762,1.97396 8.88281,5.39314 2.89044,3.38393 2.89044,8.81232 z"
           style="font-style:normal;font-variant:normal;font-weight:bold;font-stretch:normal;font-size:72.1905px;font-family:Verdana;-inkscape-font-specification:'Verdana Bold';text-align:center;text-anchor:middle;fill:none;stroke:#ff0000;stroke-width:4.83419;stroke-linejoin:round;stroke-miterlimit:4;stroke-dasharray:none;stroke-opacity:1"
           id="path154" />
      </g>
    </g>
    <g
       id="g207"
       transform="translate(-24,-0.7873931)"
       style="fill:#ff0000">
      <g
         aria-label="Anna"
         id="text159"
         style="font-style:normal;font-variant:normal;font-weight:normal;font-stretch:normal;font-size:26.6667px;line-height:1.25;font-family:Verdana;-inkscape-font-specification:'Verdana, Normal';font-variant-ligatures:normal;font-variant-caps:normal;font-variant-numeric:normal;font-variant-east-asian:normal;fill:#ff0000;fill-opacity:1;stroke:none">
        <path
           d="m 212.78248,658.60626 h -2.7474 l -1.90105,-5.40365 h -8.38542 l -1.90105,5.40365 h -2.61719 l 7.0573,-19.38804 h 3.43751 z m -5.44272,-7.61719 -3.39844,-9.51825 -3.41146,9.51825 z"
           id="path221" />
        <path
           d="m 227.69135,658.60626 h -2.44792 V 650.325 q 0,-1.0026 -0.11719,-1.875 -0.11718,-0.88542 -0.42969,-1.38021 -0.32552,-0.54688 -0.9375,-0.80729 -0.61198,-0.27344 -1.58854,-0.27344 -1.00261,0 -2.09636,0.49479 -1.09375,0.49479 -2.09635,1.26302 v 10.85939 h -2.44792 v -14.54429 h 2.44792 v 1.61459 q 1.14583,-0.95052 2.36979,-1.48438 1.22396,-0.53385 2.51303,-0.53385 2.35677,0 3.59375,1.41927 1.23698,1.41927 1.23698,4.08855 z"
           id="path223" />
        <path
           d="m 244.56637,658.60626 h -2.44792 V 650.325 q 0,-1.0026 -0.11719,-1.875 -0.11718,-0.88542 -0.42968,-1.38021 -0.32553,-0.54688 -0.93751,-0.80729 -0.61198,-0.27344 -1.58854,-0.27344 -1.0026,0 -2.09636,0.49479 -1.09375,0.49479 -2.09635,1.26302 v 10.85939 h -2.44792 v -14.54429 h 2.44792 v 1.61459 q 1.14583,-0.95052 2.36979,-1.48438 1.22396,-0.53385 2.51303,-0.53385 2.35677,0 3.59375,1.41927 1.23698,1.41927 1.23698,4.08855 z"
           id="path225" />
        <path
           d="m 260.58202,658.60626 h -2.4349 v -1.54948 q -0.32552,0.22136 -0.88542,0.625 -0.54687,0.39063 -1.06771,0.625 -0.61198,0.29948 -1.40625,0.49479 -0.79427,0.20834 -1.86198,0.20834 -1.96615,0 -3.33334,-1.30209 -1.36719,-1.30208 -1.36719,-3.32031 0,-1.65365 0.70313,-2.66928 0.71614,-1.02864 2.03125,-1.61458 1.32813,-0.58594 3.19011,-0.79427 1.86198,-0.20834 3.9974,-0.3125 v -0.37761 q 0,-0.83333 -0.29948,-1.38021 -0.28646,-0.54688 -0.83333,-0.85938 -0.52084,-0.29948 -1.25001,-0.40364 -0.72916,-0.10417 -1.52344,-0.10417 -0.96354,0 -2.14844,0.26042 -1.18489,0.24739 -2.44792,0.72917 h -0.1302 v -2.48699 q 0.71614,-0.19531 2.07031,-0.42968 1.35417,-0.23438 2.66928,-0.23438 1.53646,0 2.66927,0.26042 1.14583,0.24739 1.97917,0.85937 0.82031,0.59896 1.25,1.54948 0.42969,0.95053 0.42969,2.35678 z m -2.4349,-3.58073 v -4.04949 q -1.11979,0.0651 -2.64323,0.19532 -1.51042,0.13021 -2.39584,0.3776 -1.05469,0.29948 -1.70573,0.9375 -0.65104,0.625 -0.65104,1.73178 0,1.25 0.75521,1.88802 0.75521,0.625 2.30469,0.625 1.28906,0 2.35677,-0.49479 1.06771,-0.50782 1.97917,-1.21094 z"
           id="path227" />
      </g>
      <g
         aria-label="Max"
         id="text163"
         style="font-style:normal;font-variant:normal;font-weight:normal;font-stretch:normal;font-size:26.6667px;line-height:1.25;font-family:Verdana;-inkscape-font-specification:'Verdana, Normal';font-variant-ligatures:normal;font-variant-caps:normal;font-variant-numeric:normal;font-variant-east-asian:normal;fill:#ff0000;fill-opacity:1;stroke:none">
        <path
           d="m 212.49602,694.80487 h -2.57813 v -16.70575 l -5.39063,11.3672 h -1.53646 l -5.35157,-11.3672 v 16.70575 h -2.40885 v -19.38804 h 3.51562 l 5.16928,10.79428 5.00001,-10.79428 h 3.58073 z"
           id="path231" />
        <path
           d="m 228.81115,694.80487 h -2.4349 v -1.54948 q -0.32552,0.22135 -0.88542,0.625 -0.54687,0.39063 -1.06771,0.625 -0.61198,0.29948 -1.40625,0.49479 -0.79427,0.20834 -1.86198,0.20834 -1.96615,0 -3.33334,-1.30209 -1.36719,-1.30208 -1.36719,-3.32031 0,-1.65365 0.70313,-2.66928 0.71614,-1.02865 2.03125,-1.61458 1.32813,-0.58594 3.19011,-0.79428 1.86198,-0.20833 3.9974,-0.3125 v -0.3776 q 0,-0.83334 -0.29948,-1.38021 -0.28646,-0.54688 -0.83333,-0.85938 -0.52084,-0.29948 -1.25001,-0.40364 -0.72916,-0.10417 -1.52344,-0.10417 -0.96354,0 -2.14844,0.26042 -1.18489,0.24739 -2.44792,0.72916 h -0.1302 v -2.48698 q 0.71614,-0.19531 2.07031,-0.42969 1.35417,-0.23437 2.66927,-0.23437 1.53647,0 2.66928,0.26042 1.14583,0.24739 1.97917,0.85937 0.82031,0.59896 1.25,1.54948 0.42969,0.95052 0.42969,2.35678 z m -2.4349,-3.58073 v -4.04949 q -1.11979,0.0651 -2.64323,0.19532 -1.51042,0.1302 -2.39584,0.3776 -1.05469,0.29948 -1.70573,0.9375 -0.65104,0.625 -0.65104,1.73177 0,1.25001 0.75521,1.88803 0.7552,0.625 2.30469,0.625 1.28906,0 2.35677,-0.49479 1.06771,-0.50782 1.97917,-1.21094 z"
           id="path233" />
        <path
           d="m 246.11586,694.80487 h -3.08595 l -4.1276,-5.58594 -4.15366,5.58594 h -2.85156 l 5.67709,-7.25261 -5.62501,-7.29168 h 3.08594 l 4.10157,5.4948 4.11459,-5.4948 h 2.86459 l -5.71616,7.16147 z"
           id="path235" />
      </g>
      <g
         aria-label="Eli"
         id="text167"
         style="font-style:normal;font-variant:normal;font-weight:normal;font-stretch:normal;font-size:26.6667px;line-height:1.25;font-family:Verdana;-inkscape-font-specification:'Verdana, Normal';font-variant-ligatures:normal;font-variant-caps:normal;font-variant-numeric:normal;font-variant-east-asian:normal;fill:#ff0000;fill-opacity:1;stroke:none">
        <path
           d="m 208.00383,731.87585 h -12.77345 v -19.38804 h 12.77345 v 2.29167 H 197.8085 v 5.31251 h 10.19533 v 2.29166 H 197.8085 v 7.20053 h 10.19533 z"
           id="path239" />
        <path
           d="m 214.37103,731.87585 h -2.44792 v -20.26044 h 2.44792 z"
           id="path241" />
        <path
           d="m 221.84499,714.89667 h -2.76042 v -2.53907 h 2.76042 z m -0.15625,16.97918 h -2.44792 v -14.54428 h 2.44792 z"
           id="path243" />
      </g>
      <g
         aria-label="Ellie"
         id="text171"
         style="font-style:normal;font-variant:normal;font-weight:normal;font-stretch:normal;font-size:26.6667px;line-height:1.25;font-family:Verdana;-inkscape-font-specification:'Verdana, Normal';font-variant-ligatures:normal;font-variant-caps:normal;font-variant-numeric:normal;font-variant-east-asian:normal;fill:#ff0000;fill-opacity:1;stroke:none">
        <path
           d="m 208.00383,622.47272 h -12.77345 v -19.38805 h 12.77345 v 2.29167 H 197.8085 v 5.31251 h 10.19533 v 2.29167 H 197.8085 v 7.20053 h 10.19533 z"
           id="path247" />
        <path
           d="m 214.37103,622.47272 h -2.44792 v -20.26044 h 2.44792 z"
           id="path249" />
        <path
           d="m 221.68874,622.47272 h -2.44792 v -20.26044 h 2.44792 z"
           id="path251" />
        <path
           d="m 229.16271,605.49353 h -2.76042 v -2.53907 h 2.76042 z m -0.15625,16.97919 h -2.44792 v -14.54429 h 2.44792 z"
           id="path253" />
        <path
           d="m 246.02471,615.45448 h -10.71616 q 0,1.34115 0.40365,2.34375 0.40365,0.98959 1.10677,1.62761 0.67709,0.625 1.60157,0.9375 0.9375,0.3125 2.05729,0.3125 1.48438,0 2.98177,-0.58594 1.51042,-0.59896 2.14845,-1.17187 h 0.1302 v 2.66927 q -1.23698,0.52083 -2.52604,0.8724 -1.28907,0.35156 -2.70834,0.35156 -3.61979,0 -5.65105,-1.95313 -2.03125,-1.96615 -2.03125,-5.57292 0,-3.56771 1.94011,-5.66407 1.95312,-2.09636 5.13021,-2.09636 2.94271,0 4.53126,1.71875 1.60156,1.71876 1.60156,4.88282 z m -2.38281,-1.875 q -0.013,-1.92709 -0.97657,-2.98178 -0.95052,-1.05469 -2.90365,-1.05469 -1.96614,0 -3.13802,1.15886 -1.15886,1.15885 -1.31511,2.87761 z"
           id="path255" />
      </g>
      <g
         aria-label="Caroleen"
         id="text183"
         style="font-style:normal;font-variant:normal;font-weight:normal;font-stretch:normal;font-size:26.6667px;line-height:1.25;font-family:Verdana;-inkscape-font-specification:'Verdana, Normal';font-variant-ligatures:normal;font-variant-caps:normal;font-variant-numeric:normal;font-variant-east-asian:normal;fill:#ff0000;fill-opacity:1;stroke:none">
        <path
           d="m 211.31112,767.13696 q -0.71615,0.3125 -1.30209,0.58594 -0.57291,0.27344 -1.51042,0.57292 -0.79427,0.24739 -1.73177,0.41666 -0.92448,0.1823 -2.04427,0.1823 -2.10938,0 -3.84115,-0.58594 -1.71875,-0.59896 -2.9948,-1.86198 -1.25,-1.23698 -1.95313,-3.13803 -0.70312,-1.91406 -0.70312,-4.44011 0,-2.39583 0.67708,-4.28386 0.67709,-1.88802 1.95313,-3.19011 1.23698,-1.26302 2.98178,-1.92708 1.75781,-0.66407 3.89323,-0.66407 1.5625,0 3.11198,0.37761 1.5625,0.3776 3.46355,1.32813 v 3.0599 h -0.19531 q -1.60157,-1.34115 -3.17709,-1.95313 -1.57552,-0.61198 -3.3724,-0.61198 -1.47136,0 -2.65626,0.48177 -1.17187,0.46875 -2.09635,1.47136 -0.89844,0.97656 -1.40625,2.47396 -0.4948,1.48437 -0.4948,3.4375 0,2.04427 0.54688,3.51563 0.5599,1.47136 1.43229,2.39584 0.91146,0.96354 2.1224,1.43229 1.22396,0.45573 2.57813,0.45573 1.86198,0 3.48959,-0.63802 1.6276,-0.63802 3.04688,-1.91407 h 0.18229 z"
           id="path258" />
        <path
           d="m 226.06374,768.54321 h -2.4349 v -1.54948 q -0.32552,0.22136 -0.88541,0.625 -0.54688,0.39063 -1.06771,0.625 -0.61198,0.29948 -1.40626,0.4948 -0.79427,0.20833 -1.86198,0.20833 -1.96615,0 -3.33334,-1.30209 -1.36718,-1.30208 -1.36718,-3.32031 0,-1.65365 0.70312,-2.66928 0.71615,-1.02864 2.03125,-1.61458 1.32813,-0.58594 3.19011,-0.79427 1.86198,-0.20834 3.9974,-0.3125 v -0.37761 q 0,-0.83333 -0.29948,-1.38021 -0.28646,-0.54687 -0.83333,-0.85938 -0.52083,-0.29947 -1.25,-0.40364 -0.72917,-0.10417 -1.52344,-0.10417 -0.96354,0 -2.14844,0.26042 -1.1849,0.24739 -2.44792,0.72917 h -0.13021 v -2.48699 q 0.71615,-0.19531 2.07031,-0.42968 1.35417,-0.23438 2.66928,-0.23438 1.53646,0 2.66927,0.26042 1.14584,0.24739 1.97917,0.85937 0.82032,0.59896 1.25,1.54948 0.42969,0.95053 0.42969,2.35678 z m -2.4349,-3.58073 v -4.04949 q -1.11979,0.0651 -2.64323,0.19532 -1.51042,0.13021 -2.39584,0.3776 -1.05468,0.29948 -1.70573,0.9375 -0.65104,0.625 -0.65104,1.73178 0,1.25 0.75521,1.88802 0.75521,0.625 2.30469,0.625 1.28906,0 2.35677,-0.49479 1.06771,-0.50781 1.97917,-1.21094 z"
           id="path260" />
        <path
           d="m 239.85282,756.6682 h -0.13021 q -0.54687,-0.13021 -1.06771,-0.18229 -0.50781,-0.0651 -1.21094,-0.0651 -1.13281,0 -2.1875,0.50781 -1.05469,0.4948 -2.03125,1.28907 v 10.32553 h -2.44792 v -14.54429 h 2.44792 v 2.14844 q 1.45833,-1.17187 2.56511,-1.65364 1.11979,-0.4948 2.27864,-0.4948 0.63803,0 0.92448,0.0391 0.28646,0.026 0.85938,0.11718 z"
           id="path262" />
        <path
           d="m 254.55336,761.27758 q 0,3.55469 -1.82292,5.61198 -1.82291,2.0573 -4.88281,2.0573 -3.08595,0 -4.90886,-2.0573 -1.8099,-2.05729 -1.8099,-5.61198 0,-3.55469 1.8099,-5.61199 1.82291,-2.07031 4.90886,-2.07031 3.0599,0 4.88281,2.07031 1.82292,2.0573 1.82292,5.61199 z m -2.52604,0 q 0,-2.82553 -1.10677,-4.19271 -1.10678,-1.38021 -3.07292,-1.38021 -1.99219,0 -3.09897,1.38021 -1.09375,1.36718 -1.09375,4.19271 0,2.73438 1.10677,4.15365 1.10678,1.40625 3.08595,1.40625 1.95312,0 3.0599,-1.39323 1.11979,-1.40625 1.11979,-4.16667 z"
           id="path264" />
        <path
           d="m 260.81639,768.54321 h -2.44792 v -20.26044 h 2.44792 z"
           id="path266" />
        <path
           d="m 277.83464,761.52497 h -10.71616 q 0,1.34115 0.40365,2.34376 0.40364,0.98958 1.10677,1.6276 0.67708,0.625 1.60156,0.93751 0.93751,0.3125 2.0573,0.3125 1.48438,0 2.98177,-0.58594 1.51042,-0.59896 2.14844,-1.17188 h 0.13021 v 2.66928 q -1.23698,0.52083 -2.52604,0.87239 -1.28907,0.35156 -2.70834,0.35156 -3.6198,0 -5.65105,-1.95312 -2.03125,-1.96615 -2.03125,-5.57293 0,-3.56771 1.94011,-5.66407 1.95312,-2.09635 5.13021,-2.09635 2.94271,0 4.53126,1.71875 1.60156,1.71875 1.60156,4.88282 z m -2.38281,-1.875 q -0.013,-1.92708 -0.97657,-2.98177 -0.95052,-1.05469 -2.90365,-1.05469 -1.96615,0 -3.13802,1.15885 -1.15886,1.15886 -1.31511,2.87761 z"
           id="path268" />
        <path
           d="m 293.72008,761.52497 h -10.71616 q 0,1.34115 0.40365,2.34376 0.40364,0.98958 1.10677,1.6276 0.67708,0.625 1.60156,0.93751 0.9375,0.3125 2.0573,0.3125 1.48437,0 2.98177,-0.58594 1.51042,-0.59896 2.14844,-1.17188 h 0.13021 v 2.66928 q -1.23698,0.52083 -2.52605,0.87239 -1.28906,0.35156 -2.70833,0.35156 -3.6198,0 -5.65105,-1.95312 -2.03125,-1.96615 -2.03125,-5.57293 0,-3.56771 1.9401,-5.66407 1.95313,-2.09635 5.13022,-2.09635 2.94271,0 4.53125,1.71875 1.60157,1.71875 1.60157,4.88282 z m -2.38282,-1.875 q -0.013,-1.92708 -0.97656,-2.98177 -0.95052,-1.05469 -2.90365,-1.05469 -1.96615,0 -3.13803,1.15885 -1.15885,1.15886 -1.3151,2.87761 z"
           id="path270" />
        <path
           d="m 309.59249,768.54321 h -2.44792 v -8.28126 q 0,-1.0026 -0.11718,-1.875 -0.11719,-0.88542 -0.42969,-1.38021 -0.32552,-0.54688 -0.9375,-0.80729 -0.61198,-0.27344 -1.58855,-0.27344 -1.0026,0 -2.09635,0.49479 -1.09375,0.49479 -2.09636,1.26302 v 10.85939 h -2.44792 v -14.54429 h 2.44792 v 1.61459 q 1.14584,-0.95052 2.3698,-1.48438 1.22395,-0.53385 2.51302,-0.53385 2.35677,0 3.59375,1.41927 1.23698,1.41927 1.23698,4.08855 z"
           id="path272" />
      </g>
    </g>
    <g
       id="g219"
       transform="translate(18)"
       style="fill:#ff0000">
      <g
         aria-label="Peter"
         id="text175"
         style="font-style:normal;font-variant:normal;font-weight:normal;font-stretch:normal;font-size:26.6667px;line-height:1.25;font-family:Verdana;-inkscape-font-specification:'Verdana, Normal';font-variant-ligatures:normal;font-variant-caps:normal;font-variant-numeric:normal;font-variant-east-asian:normal;fill:#ff0000;fill-opacity:1;stroke:none">
        <path
           d="m 536.23325,607.28426 q 0,1.28907 -0.45572,2.39584 -0.44271,1.09375 -1.25001,1.90104 -1.0026,1.00261 -2.36979,1.51042 -1.36719,0.4948 -3.45053,0.4948 h -2.57812 v 7.22657 h -2.57813 v -19.38805 h 5.26042 q 1.74479,0 2.95573,0.29948 1.21094,0.28646 2.14844,0.91146 1.10678,0.74219 1.70574,1.84896 0.61197,1.10677 0.61197,2.79948 z m -2.68229,0.0651 q 0,-1.00261 -0.35156,-1.7448 -0.35157,-0.74218 -1.06771,-1.21093 -0.625,-0.40365 -1.4323,-0.57292 -0.79427,-0.18229 -2.01823,-0.18229 h -2.55208 v 7.7474 h 2.17448 q 1.5625,0 2.53906,-0.27344 0.97657,-0.28645 1.58855,-0.89843 0.61198,-0.62501 0.85937,-1.31511 0.26042,-0.69011 0.26042,-1.54948 z"
           id="path275" />
        <path
           d="m 550.95984,613.79469 h -10.71616 q 0,1.34115 0.40364,2.34375 0.40365,0.98959 1.10677,1.62761 0.67709,0.625 1.60157,0.9375 0.9375,0.3125 2.05729,0.3125 1.48438,0 2.98178,-0.58594 1.51042,-0.59896 2.14844,-1.17187 h 0.13021 v 2.66927 q -1.23698,0.52083 -2.52605,0.8724 -1.28906,0.35156 -2.70833,0.35156 -3.6198,0 -5.65105,-1.95313 -2.03126,-1.96615 -2.03126,-5.57292 0,-3.56771 1.94011,-5.66407 1.95313,-2.09636 5.13022,-2.09636 2.94271,0 4.53125,1.71875 1.60157,1.71876 1.60157,4.88282 z m -2.38282,-1.875 q -0.013,-1.92709 -0.97656,-2.98178 -0.95053,-1.05469 -2.90365,-1.05469 -1.96615,0 -3.13803,1.15886 -1.15885,1.15885 -1.3151,2.87761 z"
           id="path277" />
        <path
           d="m 562.22287,620.68272 q -0.6901,0.18229 -1.51042,0.29948 -0.80729,0.11719 -1.44531,0.11719 -2.22657,0 -3.38542,-1.19792 -1.15886,-1.19792 -1.15886,-3.84115 v -7.73439 h -1.65365 v -2.05729 h 1.65365 v -4.17969 h 2.44792 v 4.17969 h 5.05209 v 2.05729 h -5.05209 v 6.62761 q 0,1.14584 0.0521,1.79688 0.0521,0.63802 0.36459,1.19792 0.28646,0.52083 0.78125,0.76823 0.50781,0.23438 1.53646,0.23438 0.59896,0 1.25,-0.16928 0.65104,-0.18229 0.9375,-0.29947 h 0.13021 z"
           id="path279" />
        <path
           d="m 577.3531,613.79469 h -10.71616 q 0,1.34115 0.40364,2.34375 0.40365,0.98959 1.10678,1.62761 0.67708,0.625 1.60156,0.9375 0.9375,0.3125 2.05729,0.3125 1.48438,0 2.98178,-0.58594 1.51042,-0.59896 2.14844,-1.17187 h 0.13021 v 2.66927 q -1.23698,0.52083 -2.52605,0.8724 -1.28906,0.35156 -2.70833,0.35156 -3.6198,0 -5.65105,-1.95313 -2.03126,-1.96615 -2.03126,-5.57292 0,-3.56771 1.94011,-5.66407 1.95313,-2.09636 5.13022,-2.09636 2.94271,0 4.53125,1.71875 1.60157,1.71876 1.60157,4.88282 z m -2.38282,-1.875 q -0.013,-1.92709 -0.97656,-2.98178 -0.95052,-1.05469 -2.90365,-1.05469 -1.96615,0 -3.13803,1.15886 -1.15885,1.15885 -1.3151,2.87761 z"
           id="path281" />
        <path
           d="m 590.13957,608.93791 h -0.13021 q -0.54687,-0.13021 -1.06771,-0.18229 -0.50781,-0.0651 -1.21094,-0.0651 -1.13281,0 -2.1875,0.50781 -1.05469,0.49479 -2.03125,1.28906 v 10.32554 h -2.44792 v -14.54429 h 2.44792 v 2.14844 q 1.45833,-1.17188 2.56511,-1.65365 1.11979,-0.49479 2.27864,-0.49479 0.63803,0 0.92449,0.0391 0.28645,0.026 0.85937,0.11719 z"
           id="path283" />
      </g>
      <g
         aria-label="Simon"
         id="text179"
         style="font-style:normal;font-variant:normal;font-weight:normal;font-stretch:normal;font-size:26.6667px;line-height:1.25;font-family:Verdana;-inkscape-font-specification:'Verdana, Normal';font-variant-ligatures:normal;font-variant-caps:normal;font-variant-numeric:normal;font-variant-east-asian:normal;fill:#ff0000;fill-opacity:1;stroke:none">
        <path
           d="m 524.59263,650.46522 q 0,1.13282 -0.53385,2.23959 -0.52084,1.10677 -1.47136,1.875 -1.04167,0.83334 -2.4349,1.30209 -1.38021,0.46875 -3.33334,0.46875 -2.09635,0 -3.77604,-0.39063 -1.66667,-0.39062 -3.39844,-1.15885 V 651.572 h 0.18229 q 1.47135,1.22396 3.39844,1.88802 1.92709,0.66406 3.6198,0.66406 2.39583,0 3.72396,-0.89844 1.34115,-0.89844 1.34115,-2.39583 0,-1.28907 -0.63802,-1.90105 -0.62501,-0.61198 -1.91407,-0.95052 -0.97656,-0.26042 -2.1224,-0.42969 -1.13281,-0.16927 -2.40886,-0.42969 -2.57812,-0.54687 -3.82813,-1.86198 -1.23698,-1.32812 -1.23698,-3.45052 0,-2.4349 2.0573,-3.98438 2.05729,-1.5625 5.22136,-1.5625 2.04427,0 3.75,0.39062 1.70573,0.39063 3.02084,0.96354 v 3.04688 h -0.18229 q -1.10677,-0.9375 -2.91667,-1.54948 -1.79688,-0.625 -3.6849,-0.625 -2.07032,0 -3.33334,0.85938 -1.25,0.85937 -1.25,2.21354 0,1.21094 0.625,1.90105 0.625,0.6901 2.20052,1.05468 0.83334,0.1823 2.3698,0.44271 1.53646,0.26042 2.60417,0.53386 2.16146,0.57292 3.25521,1.73177 1.09375,1.15886 1.09375,3.24219 z"
           id="path286" />
        <path
           d="m 531.16816,639.0199 h -2.76042 v -2.53907 h 2.76042 z m -0.15625,16.97918 h -2.44792 V 641.4548 h 2.44792 z"
           id="path288" />
        <path
           d="m 557.07965,655.99908 h -2.44792 v -8.28126 q 0,-0.9375 -0.0911,-1.80989 -0.0781,-0.8724 -0.35156,-1.39324 -0.29948,-0.55989 -0.85937,-0.84635 -0.5599,-0.28646 -1.61459,-0.28646 -1.02865,0 -2.05729,0.52084 -1.02865,0.50781 -2.0573,1.30208 0.0391,0.29948 0.0651,0.70313 0.026,0.39062 0.026,0.78125 v 9.3099 h -2.44792 v -8.28126 q 0,-0.96354 -0.0911,-1.82291 -0.0781,-0.8724 -0.35156,-1.39324 -0.29948,-0.55989 -0.85938,-0.83333 -0.55989,-0.28646 -1.61458,-0.28646 -1.00261,0 -2.01823,0.49479 -1.00261,0.4948 -2.00522,1.26303 v 10.85938 h -2.44791 V 641.4548 h 2.44791 v 1.61458 q 1.14584,-0.95052 2.27865,-1.48438 1.14584,-0.53385 2.4349,-0.53385 1.48438,0 2.51303,0.625 1.04166,0.625 1.54948,1.73177 1.48437,-1.25 2.70833,-1.79687 1.22396,-0.5599 2.6172,-0.5599 2.39583,0 3.52865,1.45833 1.14583,1.44532 1.14583,4.04949 z"
           id="path290" />
        <path
           d="m 574.18905,648.73345 q 0,3.55469 -1.82292,5.61199 -1.82292,2.05729 -4.88282,2.05729 -3.08594,0 -4.90886,-2.05729 -1.8099,-2.0573 -1.8099,-5.61199 0,-3.55469 1.8099,-5.61199 1.82292,-2.07031 4.90886,-2.07031 3.0599,0 4.88282,2.07031 1.82292,2.0573 1.82292,5.61199 z m -2.52605,0 q 0,-2.82552 -1.10677,-4.19271 -1.10677,-1.38021 -3.07292,-1.38021 -1.99219,0 -3.09896,1.38021 -1.09375,1.36719 -1.09375,4.19271 0,2.73438 1.10677,4.15365 1.10677,1.40625 3.08594,1.40625 1.95313,0 3.0599,-1.39323 1.11979,-1.40625 1.11979,-4.16667 z"
           id="path292" />
        <path
           d="m 590.13959,655.99908 h -2.44792 v -8.28126 q 0,-1.0026 -0.11719,-1.875 -0.11718,-0.88542 -0.42968,-1.38021 -0.32553,-0.54687 -0.93751,-0.80729 -0.61198,-0.27344 -1.58854,-0.27344 -1.00261,0 -2.09636,0.49479 -1.09375,0.4948 -2.09635,1.26303 v 10.85938 h -2.44792 V 641.4548 h 2.44792 v 1.61458 q 1.14583,-0.95052 2.36979,-1.48438 1.22396,-0.53385 2.51303,-0.53385 2.35677,0 3.59375,1.41927 1.23698,1.41927 1.23698,4.08855 z"
           id="path294" />
      </g>
      <g
         aria-label="Cooper"
         id="text187"
         style="font-style:normal;font-variant:normal;font-weight:normal;font-stretch:normal;font-size:26.6667px;line-height:1.25;font-family:Verdana;-inkscape-font-specification:'Verdana, Normal';font-variant-ligatures:normal;font-variant-caps:normal;font-variant-numeric:normal;font-variant-east-asian:normal;fill:#ff0000;fill-opacity:1;stroke:none">
        <path
           d="m 512.74367,689.84424 q -0.71614,0.3125 -1.30208,0.58593 -0.57292,0.27344 -1.51042,0.57292 -0.79427,0.2474 -1.73177,0.41667 -0.92448,0.18229 -2.04428,0.18229 -2.10937,0 -3.84115,-0.58594 -1.71875,-0.59896 -2.99479,-1.86198 -1.25,-1.23698 -1.95313,-3.13802 -0.70312,-1.91407 -0.70312,-4.44011 0,-2.39584 0.67708,-4.28386 0.67708,-1.88803 1.95313,-3.19011 1.23698,-1.26302 2.98177,-1.92709 1.75782,-0.66406 3.89324,-0.66406 1.5625,0 3.11198,0.3776 1.5625,0.37761 3.46354,1.32813 v 3.0599 h -0.19531 q -1.60156,-1.34115 -3.17709,-1.95313 -1.57552,-0.61198 -3.3724,-0.61198 -1.47135,0 -2.65625,0.48178 -1.17188,0.46875 -2.09636,1.47135 -0.89843,0.97656 -1.40625,2.47396 -0.49479,1.48438 -0.49479,3.43751 0,2.04427 0.54688,3.51563 0.55989,1.47135 1.43229,2.39583 0.91146,0.96355 2.1224,1.4323 1.22396,0.45573 2.57813,0.45573 1.86198,0 3.48958,-0.63803 1.62761,-0.63802 3.04688,-1.91406 h 0.18229 z"
           id="path297" />
        <path
           d="m 528.59005,683.98485 q 0,3.5547 -1.82292,5.61199 -1.82292,2.05729 -4.88282,2.05729 -3.08594,0 -4.90886,-2.05729 -1.8099,-2.05729 -1.8099,-5.61199 0,-3.55469 1.8099,-5.61198 1.82292,-2.07032 4.90886,-2.07032 3.0599,0 4.88282,2.07032 1.82292,2.05729 1.82292,5.61198 z m -2.52605,0 q 0,-2.82552 -1.10677,-4.19271 -1.10677,-1.38021 -3.07292,-1.38021 -1.99219,0 -3.09896,1.38021 -1.09375,1.36719 -1.09375,4.19271 0,2.73438 1.10677,4.15366 1.10677,1.40625 3.08594,1.40625 1.95313,0 3.0599,-1.39323 1.11979,-1.40626 1.11979,-4.16668 z"
           id="path299" />
        <path
           d="m 544.77497,683.98485 q 0,3.5547 -1.82292,5.61199 -1.82292,2.05729 -4.88282,2.05729 -3.08594,0 -4.90886,-2.05729 -1.8099,-2.05729 -1.8099,-5.61199 0,-3.55469 1.8099,-5.61198 1.82292,-2.07032 4.90886,-2.07032 3.0599,0 4.88282,2.07032 1.82292,2.05729 1.82292,5.61198 z m -2.52605,0 q 0,-2.82552 -1.10677,-4.19271 -1.10677,-1.38021 -3.07292,-1.38021 -1.99219,0 -3.09896,1.38021 -1.09375,1.36719 -1.09375,4.19271 0,2.73438 1.10677,4.15366 1.10677,1.40625 3.08594,1.40625 1.95313,0 3.0599,-1.39323 1.11979,-1.40626 1.11979,-4.16668 z"
           id="path301" />
        <path
           d="m 561.36353,683.80256 q 0,1.77084 -0.50782,3.24219 -0.50781,1.45834 -1.43229,2.47397 -0.85938,0.96354 -2.03125,1.49739 -1.15886,0.52084 -2.46094,0.52084 -1.13282,0 -2.0573,-0.2474 -0.91146,-0.2474 -1.86198,-0.76823 v 6.09376 h -2.44792 V 676.7062 h 2.44792 v 1.52344 q 0.97656,-0.82032 2.1875,-1.36719 1.22396,-0.5599 2.60417,-0.5599 2.63022,0 4.08855,1.99219 1.47136,1.97917 1.47136,5.50782 z m -2.52605,0.0651 q 0,-2.63022 -0.89844,-3.9323 -0.89844,-1.30209 -2.76042,-1.30209 -1.05469,0 -2.1224,0.45573 -1.06771,0.45573 -2.04427,1.19792 v 8.2422 q 1.04167,0.46875 1.78386,0.63802 0.75521,0.16927 1.70573,0.16927 2.04427,0 3.19011,-1.38021 1.14583,-1.38021 1.14583,-4.08854 z"
           id="path303" />
        <path
           d="m 577.35313,684.23225 h -10.71616 q 0,1.34115 0.40364,2.34375 0.40365,0.98959 1.10678,1.62761 0.67708,0.625 1.60156,0.9375 0.9375,0.3125 2.0573,0.3125 1.48437,0 2.98177,-0.58594 1.51042,-0.59896 2.14844,-1.17187 h 0.13021 v 2.66927 q -1.23698,0.52083 -2.52605,0.8724 -1.28906,0.35156 -2.70833,0.35156 -3.6198,0 -5.65105,-1.95313 -2.03125,-1.96615 -2.03125,-5.57292 0,-3.56771 1.9401,-5.66407 1.95313,-2.09636 5.13022,-2.09636 2.94271,0 4.53125,1.71875 1.60157,1.71876 1.60157,4.88282 z m -2.38282,-1.875 q -0.013,-1.92709 -0.97656,-2.98178 -0.95052,-1.05469 -2.90365,-1.05469 -1.96615,0 -3.13803,1.15886 -1.15885,1.15886 -1.3151,2.87761 z"
           id="path305" />
        <path
           d="m 590.1396,679.37547 h -0.13021 q -0.54687,-0.13021 -1.06771,-0.18229 -0.50781,-0.0651 -1.21094,-0.0651 -1.13281,0 -2.1875,0.50781 -1.05469,0.49479 -2.03125,1.28906 v 10.32554 h -2.44792 V 676.7062 h 2.44792 v 2.14844 q 1.45833,-1.17188 2.56511,-1.65365 1.11979,-0.49479 2.27865,-0.49479 0.63802,0 0.92448,0.0391 0.28645,0.026 0.85937,0.11719 z"
           id="path307" />
      </g>
      <g
         aria-label="Julian"
         id="text191"
         style="font-style:normal;font-variant:normal;font-weight:normal;font-stretch:normal;font-size:26.6667px;line-height:1.25;font-family:Verdana;-inkscape-font-specification:'Verdana, Normal';font-variant-ligatures:normal;font-variant-caps:normal;font-variant-numeric:normal;font-variant-east-asian:normal;fill:#ff0000;fill-opacity:1;stroke:none">
        <path
           d="m 525.63427,726.94451 q 0,2.55209 -1.5625,3.9323 -1.54948,1.38021 -4.16667,1.38021 -0.62501,0 -1.66667,-0.11719 -1.04167,-0.10417 -1.7448,-0.26042 v -2.40885 h 0.14323 q 0.53386,0.18229 1.31511,0.3776 0.78125,0.19531 1.60156,0.19531 1.19792,0 1.90105,-0.27343 0.71614,-0.27344 1.05469,-0.78125 0.35156,-0.52084 0.4427,-1.27605 0.10417,-0.75521 0.10417,-1.74479 v -11.31512 h -4.10157 v -2.05729 h 6.6797 z"
           id="path310" />
        <path
           d="m 542.50929,731.98358 h -2.44792 V 730.369 q -1.23698,0.97656 -2.36979,1.49739 -1.13282,0.52084 -2.50001,0.52084 -2.29167,0 -3.56771,-1.39323 -1.27604,-1.40625 -1.27604,-4.11459 v -9.44012 h 2.44792 v 8.28126 q 0,1.10678 0.10416,1.90105 0.10417,0.78125 0.44271,1.34114 0.35156,0.57292 0.91146,0.83334 0.5599,0.26042 1.62761,0.26042 0.95052,0 2.07031,-0.4948 1.13282,-0.49479 2.10938,-1.26302 v -10.85939 h 2.44792 z"
           id="path312" />
        <path
           d="m 549.80097,731.98358 h -2.44792 v -20.26044 h 2.44792 z"
           id="path314" />
        <path
           d="m 557.27493,715.00439 h -2.76042 v -2.53906 h 2.76042 z m -0.15625,16.97919 h -2.44792 v -14.54429 h 2.44792 z"
           id="path316" />
        <path
           d="m 573.26454,731.98358 h -2.4349 v -1.54948 q -0.32552,0.22135 -0.88542,0.625 -0.54688,0.39063 -1.06771,0.625 -0.61198,0.29948 -1.40625,0.49479 -0.79427,0.20834 -1.86198,0.20834 -1.96615,0 -3.33334,-1.30209 -1.36719,-1.30208 -1.36719,-3.32031 0,-1.65365 0.70313,-2.66928 0.71614,-1.02865 2.03125,-1.61458 1.32812,-0.58594 3.19011,-0.79428 1.86198,-0.20833 3.9974,-0.3125 v -0.3776 q 0,-0.83333 -0.29948,-1.38021 -0.28646,-0.54688 -0.83334,-0.85938 -0.52083,-0.29948 -1.25,-0.40364 -0.72917,-0.10417 -1.52344,-0.10417 -0.96354,0 -2.14844,0.26042 -1.1849,0.24739 -2.44792,0.72917 h -0.13021 v -2.48699 q 0.71615,-0.19531 2.07032,-0.42969 1.35417,-0.23437 2.66927,-0.23437 1.53646,0 2.66928,0.26042 1.14583,0.24739 1.97917,0.85937 0.82031,0.59896 1.25,1.54948 0.42969,0.95053 0.42969,2.35678 z m -2.4349,-3.58073 v -4.04949 q -1.1198,0.0651 -2.64324,0.19532 -1.51041,0.1302 -2.39583,0.3776 -1.05469,0.29948 -1.70573,0.9375 -0.65105,0.625 -0.65105,1.73178 0,1.25 0.75521,1.88802 0.75521,0.625 2.30469,0.625 1.28907,0 2.35678,-0.49479 1.06771,-0.50782 1.97917,-1.21094 z"
           id="path318" />
        <path
           d="m 590.13956,731.98358 h -2.44792 v -8.28126 q 0,-1.0026 -0.11719,-1.875 -0.11719,-0.88542 -0.42969,-1.38021 -0.32552,-0.54688 -0.9375,-0.80729 -0.61198,-0.27344 -1.58854,-0.27344 -1.00261,0 -2.09636,0.49479 -1.09375,0.49479 -2.09635,1.26302 v 10.85939 h -2.44792 v -14.54429 h 2.44792 v 1.61459 q 1.14583,-0.95052 2.36979,-1.48438 1.22396,-0.53385 2.51302,-0.53385 2.35678,0 3.59376,1.41927 1.23698,1.41927 1.23698,4.08855 z"
           id="path320" />
      </g>
      <g
         aria-label="Patrick"
         id="text195"
         style="font-style:normal;font-variant:normal;font-weight:normal;font-stretch:normal;font-size:26.6667px;line-height:1.25;font-family:Verdana;-inkscape-font-specification:'Verdana, Normal';font-variant-ligatures:normal;font-variant-caps:normal;font-variant-numeric:normal;font-variant-east-asian:normal;fill:#ff0000;fill-opacity:1;stroke:none">
        <path
           d="m 515.26972,754.22707 q 0,1.28907 -0.45573,2.39584 -0.44271,1.09375 -1.25,1.90104 -1.0026,1.00261 -2.36979,1.51042 -1.36719,0.4948 -3.45053,0.4948 h -2.57813 v 7.22657 h -2.57812 v -19.38805 h 5.26042 q 1.74479,0 2.95573,0.29948 1.21094,0.28646 2.14844,0.91146 1.10677,0.74219 1.70573,1.84896 0.61198,1.10677 0.61198,2.79948 z m -2.68229,0.0651 q 0,-1.00261 -0.35156,-1.7448 -0.35157,-0.74218 -1.06771,-1.21093 -0.625,-0.40365 -1.4323,-0.57292 -0.79427,-0.18229 -2.01823,-0.18229 h -2.55209 v 7.7474 h 2.17449 q 1.5625,0 2.53906,-0.27344 0.97657,-0.28645 1.58855,-0.89843 0.61198,-0.62501 0.85937,-1.31511 0.26042,-0.69011 0.26042,-1.54948 z"
           id="path323" />
        <path
           d="m 529.12391,767.75574 h -2.4349 v -1.54948 q -0.32552,0.22135 -0.88542,0.625 -0.54688,0.39062 -1.06771,0.625 -0.61198,0.29948 -1.40625,0.49479 -0.79427,0.20833 -1.86198,0.20833 -1.96615,0 -3.33334,-1.30208 -1.36719,-1.30209 -1.36719,-3.32032 0,-1.65365 0.70313,-2.66927 0.71614,-1.02865 2.03125,-1.61459 1.32813,-0.58594 3.19011,-0.79427 1.86198,-0.20833 3.9974,-0.3125 v -0.3776 q 0,-0.83334 -0.29948,-1.38021 -0.28646,-0.54688 -0.83334,-0.85938 -0.52083,-0.29948 -1.25,-0.40365 -0.72916,-0.10416 -1.52344,-0.10416 -0.96354,0 -2.14844,0.26041 -1.18489,0.2474 -2.44792,0.72917 h -0.13021 v -2.48698 q 0.71615,-0.19531 2.07032,-0.42969 1.35417,-0.23437 2.66927,-0.23437 1.53646,0 2.66928,0.26041 1.14583,0.2474 1.97917,0.85938 0.82031,0.59896 1.25,1.54948 0.42969,0.95052 0.42969,2.35677 z m -2.4349,-3.58074 v -4.04948 q -1.11979,0.0651 -2.64323,0.19531 -1.51042,0.13021 -2.39584,0.37761 -1.05469,0.29948 -1.70573,0.9375 -0.65104,0.625 -0.65104,1.73177 0,1.25 0.7552,1.88802 0.75521,0.625 2.3047,0.625 1.28906,0 2.35677,-0.49479 1.06771,-0.50781 1.97917,-1.21094 z"
           id="path325" />
        <path
           d="m 541.38955,767.62553 q -0.69011,0.18229 -1.51042,0.29948 -0.80729,0.11719 -1.44531,0.11719 -2.22657,0 -3.38543,-1.19792 -1.15885,-1.19792 -1.15885,-3.84115 v -7.73439 h -1.65365 v -2.05729 h 1.65365 v -4.17969 h 2.44792 v 4.17969 h 5.05209 v 2.05729 h -5.05209 v 6.62761 q 0,1.14584 0.0521,1.79688 0.0521,0.63802 0.36459,1.19792 0.28645,0.52083 0.78125,0.76823 0.50781,0.23438 1.53646,0.23438 0.59896,0 1.25,-0.16928 0.65104,-0.18229 0.9375,-0.29947 h 0.13021 z"
           id="path327" />
        <path
           d="m 553.42081,755.88072 h -0.1302 q -0.54688,-0.13021 -1.06771,-0.18229 -0.50782,-0.0651 -1.21094,-0.0651 -1.13282,0 -2.18751,0.50781 -1.05469,0.49479 -2.03125,1.28906 v 10.32554 h -2.44792 v -14.54429 h 2.44792 v 2.14844 q 1.45834,-1.17188 2.56511,-1.65365 1.11979,-0.49479 2.27865,-0.49479 0.63802,0 0.92448,0.0391 0.28646,0.026 0.85937,0.11719 z"
           id="path329" />
        <path
           d="m 558.35572,750.77655 h -2.76042 v -2.53907 h 2.76042 z m -0.15625,16.97919 h -2.44792 v -14.54429 h 2.44792 z"
           id="path331" />
        <path
           d="m 573.79844,766.84428 q -1.22396,0.58594 -2.33073,0.91146 -1.09375,0.32552 -2.33073,0.32552 -1.57552,0 -2.89063,-0.45573 -1.3151,-0.46875 -2.25261,-1.40625 -0.95052,-0.9375 -1.47135,-2.3698 -0.52084,-1.43229 -0.52084,-3.34636 0,-3.56771 1.95313,-5.59896 1.96615,-2.03125 5.1823,-2.03125 1.25,0 2.44792,0.35156 1.21094,0.35156 2.21354,0.85938 v 2.72135 h -0.1302 q -1.1198,-0.87239 -2.31772,-1.34114 -1.18489,-0.46876 -2.31771,-0.46876 -2.08333,0 -3.29427,1.40626 -1.19792,1.39323 -1.19792,4.10156 0,2.63022 1.17188,4.04949 1.18489,1.40625 3.32031,1.40625 0.74219,0 1.51042,-0.19531 0.76823,-0.19532 1.38021,-0.50782 0.53386,-0.27343 1.00261,-0.57291 0.46875,-0.3125 0.74219,-0.53386 h 0.1302 z"
           id="path333" />
        <path
           d="m 590.13961,767.75574 h -3.22917 l -5.83334,-6.3672 -1.58855,1.51042 v 4.85678 h -2.44792 V 747.4953 h 2.44792 v 12.9948 l 7.07033,-7.27865 h 3.08594 l -6.75782,6.71876 z"
           id="path335" />
      </g>
    </g>
  </g>
  <desc
     id="desc134">Shooter Shroud - Sketch For Laser.dxf - scale = 1.000000, origin = (0.000000, 0.000000), method = manual</desc>
</svg>
